<?xml version="1.0" encoding="UTF-8"?>
<svg id="Layer_2" data-name="Layer 2" xmlns="http://www.w3.org/2000/svg" viewBox="0 0 690.58 117.36">
  <defs>
    <style>
      .cls-1 {
        fill: #fff;
      }
    </style>
  </defs>
  <g id="Capa_1" data-name="Capa 1">
    <g>
      <path class="cls-1" d="m680.8,28.6c-6.52-8.6-15.34-15.24-26.46-19.93-11.11-4.69-23.44-7.04-36.97-7.04,0,0,0,0,0,0h0s-34.08,0-34.08,0h-31.42l6.45,9.43v99.11S509.18,1.62,509.18,1.62h-26.48l4.16,9.19-41.24,98.15V1.62h-25.1l-46.03,88.02L322.2,1.62h-28.66l6.67,11.28v102.71h8.16V26.72l52.54,88.89h8.88l50.86-97.27v97.17h22.21l-.04.09h8.16l40.1-95.45,24.08,53.19h-32.26l-3.43,8.16h39.38l15.4,34h83.1c13.53,0,25.86-2.37,36.97-7.12,11.12-4.75,19.94-11.44,26.46-20.09s9.78-18.61,9.78-29.9-3.26-21.22-9.78-29.81m-22.11,55.26c-4.25,7.17-9.95,14.18-17.1,17.9-7.16,3.73-12.48,5.6-24.22,5.6h-34.08V9.79h34.08c11.21,0,17.06,1.88,24.22,5.6,7.15,3.73,12.85,10.68,17.1,17.76,4.24,7.08,6.37,15.51,6.37,25.28s-2.12,18.26-6.37,25.43"/>
      <path class="cls-1" d="m269.91,100.86c-2.17-1.89-4.75-2.84-7.73-2.84s-5.59.95-7.83,2.84c-2.24,1.9-3.35,4.15-3.35,6.75s1.11,5.01,3.35,6.91c2.23,1.9,4.84,2.85,7.83,2.85s5.56-.95,7.73-2.85c2.17-1.89,3.26-4.2,3.26-6.91s-1.09-4.85-3.26-6.75"/>
      <path class="cls-1" d="m242.31,27.72c-6.36-8.84-14.96-15.66-25.79-20.48-10.83-4.82-22.85-7.24-36.04-7.24s-25.22,2.41-36.05,7.24c-10.83,4.82-19.43,11.65-25.78,20.48-5.49,7.63-8.61,16.3-9.36,25.99V1.62h-8.16v80.84L30.62,1.62H0l7.59,8.56v105.43h8.16V19.39l85.36,96.23h8.16v-52.61c.75,9.71,3.87,18.4,9.36,26.08,6.35,8.89,14.95,15.76,25.78,20.64,10.83,4.88,22.85,7.31,36.05,7.31s25.21-2.44,36.04-7.31c10.84-4.88,19.43-11.76,25.79-20.64,6.36-8.89,9.53-19.13,9.53-30.73s-3.18-21.8-9.53-30.64m-20.88,57.7c-4.21,7.63-9.86,13.43-16.95,17.39-7.1,3.97-14.91,5.95-23.44,5.95s-16.35-1.98-23.44-5.95c-7.09-3.96-12.75-9.76-16.96-17.39-4.21-7.63-6.31-16.65-6.31-27.05s2.11-19.39,6.31-26.98c4.21-7.58,9.86-13.32,16.96-17.24,7.09-3.91,14.9-5.87,23.44-5.87s16.35,1.98,23.44,5.94c7.09,3.97,12.74,9.71,16.95,17.24,4.2,7.53,6.31,16.5,6.31,26.9s-2.11,19.42-6.31,27.05"/>
    </g>
  </g>
</svg>