<?xml version="1.0" encoding="utf-8"?>
<!-- Generator: Adobe Illustrator 27.7.0, SVG Export Plug-In . SVG Version: 6.00 Build 0)  -->
<svg version="1.1" id="Layer_1" xmlns="http://www.w3.org/2000/svg" xmlns:xlink="http://www.w3.org/1999/xlink" x="0px" y="0px"
	 viewBox="0 0 104.6 27.1" style="enable-background:new 0 0 104.6 27.1;" xml:space="preserve">
<g>
	<g>
		<path d="M31.6,23.2V21h0.9c0.2,0,0.4,0,0.5,0.1c0.1,0.1,0.2,0.1,0.3,0.3c0.1,0.1,0.1,0.2,0.1,0.4c0,0.1,0,0.3-0.1,0.4
			c-0.1,0.1-0.2,0.2-0.3,0.3c-0.1,0.1-0.3,0.1-0.5,0.1h-0.6v-0.3h0.6c0.1,0,0.2,0,0.3-0.1c0.1,0,0.1-0.1,0.2-0.2s0.1-0.1,0.1-0.2
			c0-0.1,0-0.2-0.1-0.2c0-0.1-0.1-0.1-0.2-0.2c-0.1,0-0.2-0.1-0.3-0.1H32v1.9H31.6z"/>
		<path d="M36.3,23.2V21h0.9c0.2,0,0.4,0,0.5,0.1c0.1,0.1,0.2,0.1,0.3,0.2s0.1,0.2,0.1,0.4c0,0.1,0,0.3-0.1,0.4
			c-0.1,0.1-0.2,0.2-0.3,0.2c-0.1,0.1-0.3,0.1-0.5,0.1h-0.7v-0.3h0.7c0.1,0,0.2,0,0.3,0c0.1,0,0.1-0.1,0.2-0.1
			c0-0.1,0.1-0.1,0.1-0.2c0-0.1,0-0.2-0.1-0.2c0-0.1-0.1-0.1-0.2-0.1c-0.1,0-0.2,0-0.3,0h-0.5v1.9H36.3z M37.6,22.2l0.6,1h-0.4
			l-0.6-1H37.6z"/>
		<path d="M42,21h0.4v1.6c0,0.1,0,0.3-0.1,0.4c-0.1,0.1-0.2,0.2-0.3,0.2c-0.1,0.1-0.3,0.1-0.4,0.1c-0.1,0-0.3,0-0.4-0.1
			c-0.1,0-0.2-0.1-0.3-0.2c-0.1-0.1-0.1-0.2-0.1-0.3h0.4c0,0.1,0,0.1,0,0.2c0,0,0.1,0.1,0.1,0.1c0.1,0,0.1,0,0.2,0
			c0.1,0,0.2,0,0.2,0s0.1-0.1,0.1-0.1c0-0.1,0-0.1,0-0.2V21z"/>
		<path d="M47.6,21.7h-0.4c0-0.1,0-0.1-0.1-0.2c0-0.1-0.1-0.1-0.2-0.1c-0.1,0-0.1-0.1-0.2-0.1c-0.1,0-0.2,0-0.2,0
			c-0.1,0-0.3,0-0.4,0.1c-0.1,0.1-0.2,0.2-0.3,0.3s-0.1,0.3-0.1,0.5c0,0.2,0,0.3,0.1,0.5c0.1,0.1,0.2,0.2,0.3,0.3
			c0.1,0.1,0.2,0.1,0.4,0.1c0.1,0,0.2,0,0.2,0c0.1,0,0.1,0,0.2-0.1c0.1,0,0.1-0.1,0.2-0.1c0-0.1,0.1-0.1,0.1-0.2l0.4,0
			c0,0.1-0.1,0.2-0.1,0.3c-0.1,0.1-0.1,0.2-0.2,0.2c-0.1,0.1-0.2,0.1-0.3,0.2c-0.1,0-0.2,0.1-0.4,0.1c-0.2,0-0.4,0-0.6-0.1
			c-0.2-0.1-0.3-0.2-0.4-0.4c-0.1-0.2-0.1-0.4-0.1-0.6c0-0.2,0.1-0.4,0.2-0.6s0.2-0.3,0.4-0.4c0.2-0.1,0.4-0.1,0.6-0.1
			c0.1,0,0.3,0,0.4,0.1c0.1,0,0.2,0.1,0.3,0.1c0.1,0.1,0.2,0.1,0.2,0.2C47.5,21.5,47.6,21.6,47.6,21.7z"/>
		<path d="M50.4,21.3V21h2v0.3h-0.8v1.9h-0.4v-1.9H50.4z"/>
	</g>
	<g>
		<path d="M79.2,7.1c-0.7-1-1.7-1.7-3-2.2C75,4.3,73.7,4,72.2,4c0,0,0,0,0,0v0h-3.8H68h-3.1l0.7,1.1l0,11.1L60.1,4h-1.1H58h-0.9
			l0.5,1L53,16V4h-1.8h-1h0L45,13.9L39.2,4h-1.5h-0.9H36l0.7,1.3v11.5h0.9V6.9l5.9,9.9h0.2h0.8l5.7-10.9v10.9h2.5l0,0h0.9L58,6.1
			l2.7,5.9h-3.6L56.8,13h4.4l1.7,3.8h2.7h0.3H68h0.4h3.8h0c1.5,0,2.9-0.3,4.1-0.8c1.2-0.5,2.2-1.3,3-2.2s1.1-2.1,1.1-3.3
			C80.3,9.1,80,8,79.2,7.1 M76.8,13.2c-0.5,0.8-1.1,1.6-1.9,2c-0.8,0.4-1.4,0.6-2.7,0.6h-3.8V5h3.8c1.3,0,1.9,0.2,2.7,0.6
			c0.8,0.4,1.4,1.2,1.9,2c0.5,0.8,0.7,1.7,0.7,2.8C77.5,11.5,77.2,12.4,76.8,13.2"/>
		<path d="M33.3,15.1c-0.2-0.2-0.5-0.3-0.9-0.3c-0.3,0-0.6,0.1-0.9,0.3c-0.3,0.2-0.4,0.5-0.4,0.8c0,0.3,0.1,0.6,0.4,0.8
			c0.2,0.2,0.5,0.3,0.9,0.3c0.3,0,0.6-0.1,0.9-0.3c0.2-0.2,0.4-0.5,0.4-0.8C33.7,15.6,33.6,15.3,33.3,15.1"/>
		<path d="M30.3,7c-0.7-1-1.7-1.7-2.9-2.3c-1.2-0.5-2.6-0.8-4-0.8c-1.5,0-2.8,0.3-4,0.8C18.1,5.2,17.2,6,16.5,7
			c-0.6,0.9-1,1.8-1,2.9V4h-0.9v9L6.6,4H3.2l0.8,1v11.8H5V6l9.5,10.7h0.9v-5.9c0.1,1.1,0.4,2.1,1,2.9c0.7,1,1.7,1.8,2.9,2.3
			c1.2,0.5,2.6,0.8,4,0.8c1.5,0,2.8-0.3,4-0.8c1.2-0.5,2.2-1.3,2.9-2.3c0.7-1,1.1-2.1,1.1-3.4C31.3,9.1,31,8,30.3,7 M27.9,13.4
			c-0.5,0.9-1.1,1.5-1.9,1.9c-0.8,0.4-1.7,0.7-2.6,0.7c-1,0-1.8-0.2-2.6-0.7c-0.8-0.4-1.4-1.1-1.9-1.9c-0.5-0.9-0.7-1.9-0.7-3
			c0-1.2,0.2-2.2,0.7-3c0.5-0.8,1.1-1.5,1.9-1.9c0.8-0.4,1.7-0.7,2.6-0.7c1,0,1.8,0.2,2.6,0.7c0.8,0.4,1.4,1.1,1.9,1.9
			c0.5,0.8,0.7,1.8,0.7,3C28.6,11.5,28.4,12.6,27.9,13.4"/>
	</g>
</g>
</svg>
