<svg width="185" height="56" viewBox="0 0 185 56" fill="none" xmlns="http://www.w3.org/2000/svg">
<g clip-path="url(#clip0_59_249)">
<path d="M85.0403 0V10.7114L85.5998 11.2752H99.4002L99.9597 10.7114V0H125.696V56H99.9597V45.2886L99.4002 44.7248H85.5998L85.0403 45.2886V56H59.3044V0H85.0403Z" fill="#161616"/>
<path d="M26.1089 44.7248V56H0V0H32.6361C34.2698 0 39.0738 1.93181 40.6627 2.81128C54.202 10.3168 55.8655 30.0596 43.8181 39.8277C41.6586 41.5791 35.6908 44.7211 33.0091 44.7211H26.1089V44.7248Z" fill="#161616"/>
<path d="M185 0V56H153.483C139.369 56 129.918 39.4217 134.17 26.3914C136.24 20.051 144.662 11.2752 151.618 11.2752H158.891V0H185Z" fill="#161616"/>
</g>
<defs>
<clipPath id="clip0_59_249">
<rect width="185" height="56" fill="white"/>
</clipPath>
</defs>
</svg>
