<svg width="101" height="86" viewBox="0 0 101 86" fill="none" xmlns="http://www.w3.org/2000/svg">
<path d="M7.11241 52.2011H0V64.5037H2.48148V59.733H7.12989C11.1667 59.733 12.023 57.6709 12.023 55.9583C11.988 54.2457 11.1317 52.2011 7.11241 52.2011ZM2.46401 54.5253H6.74544C9.34924 54.5253 9.55895 55.2243 9.55895 55.9758C9.55895 56.7272 9.33177 57.4087 6.74544 57.4087H2.46401V54.5253ZM20.9004 64.7833C16.8286 64.7833 14.5918 62.8436 14.5918 59.3485V52.2011H17.0733V59.3485C17.0733 61.4805 18.3315 62.529 20.9178 62.529C23.5042 62.529 24.7624 61.498 24.7624 59.3485V52.2011H27.2439V59.3485C27.2439 62.861 24.9721 64.7833 20.9004 64.7833ZM43.1987 60.7989C43.1987 59.3135 42.4298 58.4747 41.7134 58.0029C42.2726 57.566 42.8143 56.8845 42.8143 55.6787C42.8143 52.2011 39.127 52.2011 37.9038 52.2011H30.8787V64.5037H37.1698C39.1095 64.5212 43.1987 64.5212 43.1987 60.7989ZM37.0824 54.4729C39.529 54.4729 40.3503 54.6477 40.3503 55.7137C40.3503 56.0632 40.3503 56.9894 37.5543 56.9894H33.3602V54.4729H37.0824ZM38.0436 62.197H33.3602V59.2436H38.1834C40.6823 59.2436 40.6823 60.3271 40.6823 60.7815C40.6998 61.6203 40.228 62.197 38.0436 62.197ZM57.7381 64.5212H46.7812V52.2186H49.2626V62.197H57.7556V64.5212H57.7381ZM60.1847 52.2011H62.6487V64.5037H60.1847V52.2011ZM72.5571 64.7833C67.4369 64.7833 65.602 61.463 65.602 58.3699C65.602 54.3855 68.2582 51.9215 72.5396 51.9215C75.5454 51.9215 77.922 53.2496 78.9006 55.4515L79.1278 55.9583L76.9259 56.9719L76.6987 56.4476C76.0522 54.9447 74.6716 54.1758 72.5571 54.1758C69.6562 54.1758 68.1184 55.6787 68.1184 58.5446C68.1184 60.9912 69.8135 62.4591 72.6794 62.4591C74.6367 62.4591 76.0172 61.7077 76.856 60.1349L77.1182 59.663L79.32 60.7465L79.0579 61.2533C77.8172 63.6299 75.7027 64.7833 72.5571 64.7833ZM82.1685 52.2011H84.65V64.5037H82.1685V52.2011ZM100.5 60.7989C100.5 63.7348 97.1622 64.8008 94.3312 64.8008C90.4343 64.8008 88.9489 63.1406 87.9528 62.0397L87.5683 61.6028L88.0052 61.2183L89.5081 59.9252L89.8751 60.4145C90.4867 61.2358 91.4129 62.4766 94.506 62.4766C94.873 62.4766 98.0185 62.4416 98.0185 60.8164C98.0185 59.8203 96.4982 59.5932 94.174 59.3835C91.5352 59.1388 88.2673 58.8242 88.2673 55.8709C88.2673 54.403 89.0188 51.9565 94.0691 51.9565C97.9486 51.9565 99.6437 53.8962 100.063 54.4904L100.36 54.9273L98.5428 56.4127L98.1059 55.9059C97.6341 55.3641 96.6555 54.2457 94.0167 54.2457C92.7934 54.2457 90.7488 54.438 90.7488 55.6787C90.7488 56.6224 92.1294 56.8146 94.4012 57.0243C97.1098 57.2165 100.5 57.5311 100.5 60.7989ZM27.9429 73.2588H30.9661V85.5613H28.6069V77.6451L25.1468 85.5788H23.277L19.7645 77.6276V85.5788H17.3878V73.2763H20.3761L24.1508 81.8566L27.9429 73.2588ZM37.1698 83.2546H45.9773V85.5788H34.6883V73.2763H45.7851V75.6005H37.1698V78.047H44.3696V80.3712H37.1698V83.2546ZM54.9596 73.2588H48.8957V85.5613H54.5402C58.9789 85.5613 61.5128 83.2896 61.5128 79.3052C61.5128 75.583 59.0138 73.2588 54.9596 73.2588ZM54.7673 83.2546H51.3597V75.583H54.9596C56.7945 75.583 58.9964 76.2121 58.9964 79.2703C59.0138 81.909 57.5809 83.2546 54.7673 83.2546ZM64.3438 73.2588H66.8252V85.5613H64.3438V73.2588ZM75.0736 73.2588L68.7475 85.5613H71.5261L72.994 82.6604H79.5123L80.9627 85.5613H83.7587L77.4502 73.2588H75.0736ZM74.1648 80.3537L76.2619 76.1597L78.3589 80.3537H74.1648Z" fill="#161616"/>
<path d="M75.0561 44.4421L69.3941 41.1044C70.53 41.2442 71.5086 40.7548 72.4348 40.0908L74.1474 42.1878L73.0814 39.584C74.2173 38.6928 75.1609 37.7142 76.3318 37.6967C79.5123 37.6093 77.2929 41.4364 78.4638 41.4539C79.7744 41.4713 81.1724 37.1899 78.0618 35.3201C74.8289 33.3628 72.0154 36.1763 69.7261 35.7045L78.3065 31.8774H65.7767L65.3399 31.0386C67.6116 32.0522 69.2194 31.1085 70.3028 30.0425L73.8678 30.5493L70.9145 29.396C71.6135 28.662 72.2251 28.0853 72.9591 28.3649C74.0251 28.7668 74.6367 29.693 76.4716 29.728C79.5822 29.7629 81.819 24.2582 77.7298 21.8641C78.0444 25.7961 76.2095 25.9883 73.029 23.9087L74.1299 22.1263L72.4872 23.5592C69.4291 22.1962 67.9437 24.9048 66.668 25.7611C65.3748 26.6174 64.2215 24.8873 62.6487 26.9669C64.9729 26.198 66.1612 28.4173 67.699 26.9669C67.0699 30.8988 64.7981 25.7611 62.5438 27.7358C64.5011 27.8931 65.5321 29.6231 67.0699 29.6231C69.9359 29.6231 67.3845 24.101 71.4212 24.101L70.7572 23.6815C73.0464 23.4544 73.1513 25.7611 76.6114 25.7961C76.9609 26.3203 75.7027 26.3553 74.8289 26.0582C74.6716 26.7922 79.5297 28.4348 78.3589 22.9476C79.8793 23.7689 79.5472 27.229 78.1317 28.5397C77.8521 28.8018 77.59 28.9241 77.4327 28.6445C77.0483 28.0504 78.0269 28.0678 78.324 27.1766C77.2405 28.1203 75.4056 28.0329 74.1474 26.8795C72.8892 25.7087 71.0018 24.2932 70.198 26.7397C69.3941 29.2037 68.7126 30.3571 67.2272 30.3746C65.1826 30.4095 63.0157 26.9844 60.7439 28.8717C65.0777 29.2736 66.0913 36.1589 69.9184 36.2637C72.8892 36.2637 73.5532 34.9531 75.4755 34.9531C77.4152 34.9531 79.4249 35.9666 79.4249 38.518C79.4249 40.0558 78.621 40.9121 78.621 40.9121C78.621 40.9121 79.2152 39.6539 78.9181 38.0637C78.6385 36.5433 77.3453 35.6171 75.6328 35.6171C73.2387 35.6171 71.3339 39.5141 68.6776 39.5141C63.3826 39.5141 62.0196 29.3086 56.4625 30.8639C60.5342 33.625 60.9885 38.0287 63.1904 39.7413C65.4098 41.4539 68.066 40.7549 69.5339 42.048C70.1281 42.5723 70.3902 43.4635 70.5824 44.4247H70.0757C69.9009 43.9353 69.6213 43.4635 69.1844 43.079C67.9262 41.7509 64.0991 42.3276 62.3516 40.4403C60.5866 38.553 59.3109 32.856 55.8683 31.9823C58.874 33.922 59.5556 38.885 61.705 41.3315C63.8545 43.7781 66.7029 42.4849 67.9961 43.7606C68.2233 43.9878 68.4155 44.1975 68.5903 44.4247H66.1612C65.934 44.3897 65.7068 44.3547 65.4447 44.3547C65.0428 44.3547 64.6409 44.3897 64.2389 44.4247H60.8313C60.3769 44.2849 59.975 44.0577 59.5905 43.6732C57.8954 41.8733 58.0352 39.9685 58.175 37.7316C58.5071 39.8287 58.909 44.6868 62.5264 44.1276C57.9828 42.5723 60.6216 34.7783 55.0644 32.7687C54.4703 32.5415 54.6625 30.5843 56.2003 30.3047C53.1946 30.8813 53.2121 29.7804 55.344 27.5785C54.0334 28.4173 52.6179 28.1727 52.2859 29.1164C52.2859 29.1164 54.7324 32.9784 54.7324 33.7298C54.7324 34.4812 53.1072 37.5394 52.9325 37.6268C52.3383 37.9588 50.3461 37.9763 49.8393 37.819C49.3151 37.6617 48.7035 36.0016 48.9481 35.4948C49.3326 34.691 52.3733 34.0269 52.4432 32.8386C52.4781 31.8949 51.2024 31.8075 51.2548 32.2968C51.9713 32.5415 52.3034 33.625 50.1539 34.1143L50.6257 33.3454C50.6257 33.3454 49.0355 34.621 48.9481 34.6735C48.8607 34.7259 48.4938 34.7608 48.2666 34.6909C48.0394 34.621 45.7327 33.5026 46.1346 32.4192C46.1346 32.4192 46.8336 32.7163 48.5811 32.7163C50.3461 32.7163 50.4859 31.9648 50.4859 31.9648C50.4859 31.9648 49.5423 32.192 48.5986 32.192C47.6375 32.192 46.7113 31.9648 46.7113 31.9648C45.9598 31.7901 46.7462 30.8289 47.0258 30.8289H48.8433C48.9656 30.8289 49.1054 30.5843 48.8607 30.5493C48.686 30.5493 47.5326 30.5144 47.4278 30.2348C47.2705 29.7629 46.9559 26.7048 46.9559 26.7048C46.9559 26.7048 47.3579 25.7611 47.0258 25.4466C46.6938 25.132 46.554 25.2893 46.554 25.2893C47.3054 29.5008 44.0725 32.1221 42.2376 31.6153L42.0104 31.5804C42.4124 31.8949 42.9541 32.1745 43.6531 32.4017C40.2105 33.1182 38.795 31.0212 38.2358 29.7629C37.9387 29.9202 37.9212 30.7415 37.9562 31.2658C37.2397 30.4794 36.8028 29.2736 37.4669 28.3999C36.5931 28.8193 36.5582 28.9591 36.5582 28.9591C36.5931 28.2426 37.8688 27.7708 38.5154 26.9145C39.1445 26.0582 39.0222 24.7825 37.6591 24.2233C37.7465 25.5339 37.1174 26.4077 35.7893 26.8446C34.5136 27.264 34.7233 26.1281 33.5524 26.3727C35.4922 26.8096 35.3699 29.4833 37.3096 30.5843C34.7233 29.9901 34.2864 26.4776 31.1409 26.8271C32.9408 24.2582 35.7893 26.4776 36.9776 24.6951C33.9194 25.3941 31.8399 22.8078 31.4904 19.9768C30.9486 15.6604 27.3138 17.7749 27.3662 15.6604C29.2011 16.4818 33.2728 13.3362 34.4786 16.9186C35.7368 20.6583 38.2882 22.1962 40.5775 20.4661L30.6166 10.348L31.8748 14.5944C29.271 15.1012 26.1429 13.5459 27.838 9.91108C25.3915 8.77519 22.1062 12.8644 25.1294 16.0798C26.5099 17.5652 29.9176 17.0235 30.8088 20.0467L27.5759 19.7846L30.8962 20.6409L31.8923 23.5767L24.1508 19.8021L28.904 25.3417C26.1429 26.8096 25.4265 22.5981 21.8266 22.7029C19.3101 22.7554 16.4966 25.3417 17.6675 28.3824C21.4246 26.1106 22.6304 27.7183 24.2381 29.3261L21.9139 30.5668L24.6575 29.728C25.6362 30.6367 26.8245 31.3881 28.7992 31.2483C32.0496 31.0037 34.898 29.9552 35.6495 30.8464C36.2087 31.5104 35.5621 31.9124 34.3912 31.9124H18.8558L25.077 35.2502C24.4828 35.722 22.7527 37.8365 21.547 37.8365C20.3412 37.8365 17.6675 36.0016 16.951 39.217C19.7121 38.7452 21.1276 44.7916 26.9468 39.9685L24.2381 44.4596H11.4288V46.0149H88.3722V44.4596L75.0561 44.4421ZM72.0329 26.1456C73.4658 26.7572 69.0446 31.0561 67.6816 30.9163C70.4951 30.0775 70.5999 25.5339 72.0329 26.1456ZM72.6096 38.8675C73.6231 36.2113 76.7512 35.0579 78.0444 37.3821C78.1143 37.487 78.0094 37.5918 77.7822 37.3647C76.157 35.7395 74.0775 37.2773 72.7843 38.9724C72.5921 39.217 72.5397 39.0772 72.6096 38.8675ZM27.1915 10.313C26.3701 11.746 26.5274 14.3323 29.8127 15.1012C24.308 16.342 24.4653 10.1033 27.1915 10.313ZM22.7353 27.2815C20.2188 25.9009 17.9471 27.5436 17.9471 27.5436C18.716 25.0272 23.3993 24.8349 22.7353 27.2815ZM23.8537 26.2854C23.4692 25.7786 23.1547 25.3417 22.7353 25.2019C22.1935 25.0272 21.6169 25.0446 21.0926 25.0796C20.446 25.1145 19.8868 25.132 19.7121 24.7301C19.6072 24.4679 19.7121 24.1883 20.0616 23.9437C20.4111 23.699 20.9179 23.5417 21.4246 23.5068C22.0013 23.4718 22.4906 23.5942 22.8052 23.8913C23.1197 24.1709 23.2595 24.1883 23.312 24.1709C23.3993 24.1359 23.3644 23.9437 23.3644 23.8214C23.3469 23.734 23.3294 23.6641 23.3993 23.6641C24.308 23.8214 24.7449 24.3631 25.1993 24.9223C25.9682 25.866 27.1565 27.2465 30.0574 26.7572C29.3234 29.361 25.1818 28.5921 23.8537 26.2854ZM26.1954 29.7979C26.0381 28.662 31.7001 27.8407 31.735 29.4484C31.77 30.8464 26.3526 31.0386 26.1954 29.7979ZM55.3965 36.7356C53.5091 40.7723 58.1401 43.2888 59.0138 44.0926C59.1012 44.18 59.2235 44.3198 59.3109 44.4421H57.7381C57.2838 43.481 56.7945 42.747 56.2353 42.5024C56.6197 43.0616 56.8993 43.7431 57.144 44.4421H56.41C55.344 42.3101 53.5616 40.685 55.3965 36.7356ZM54.9421 44.4421H54.2781L53.5091 42.2402C54.1033 42.5373 54.5577 43.3761 54.9421 44.4421ZM53.0548 44.4421H52.3208C52.6354 43.2363 52.7927 41.9432 52.0412 40.3879C53.247 41.4014 53.2295 42.9218 53.0548 44.4421ZM51.7616 44.4421H51.115C51.3946 43.4985 51.4645 42.4849 50.6782 41.0519C51.8665 42.048 51.9538 43.2538 51.7616 44.4421ZM46.9909 44.4421C47.3753 42.782 46.6938 42.2752 45.2783 40.7549C47.3928 42.2053 48.1442 43.2014 48.0044 44.4421H46.9909ZM48.686 41.5412C49.752 42.7645 50.049 43.6557 50.0665 44.4596H49.4374C49.4549 43.6557 49.3151 42.747 48.686 41.5412ZM48.5811 38.6578C49.4898 38.6578 51.2548 38.6054 51.3073 38.6054C51.5519 38.6054 51.6043 38.6928 51.6043 38.7277C51.6043 38.8151 51.482 39.2869 51.3073 39.3219C51.2898 39.3393 49.5772 39.7238 48.5811 39.6714C47.5676 39.7238 45.8725 39.3219 45.855 39.3219C45.6802 39.2694 45.5404 38.8151 45.5579 38.7277C45.5579 38.6928 45.6103 38.6054 45.855 38.6054C45.855 38.6229 47.6549 38.6578 48.5811 38.6578ZM45.9249 32.3143C45.1735 32.559 45.0511 33.7648 47.2355 34.2716C46.5191 34.3589 44.789 34.0444 44.7366 32.856C44.6667 31.9124 45.9424 31.8075 45.9249 32.3143ZM43.7929 34.3589C45.82 34.4813 47.952 35.4948 47.952 35.4948C48.1967 36.0191 47.585 37.6792 47.0433 37.819C46.554 37.9763 44.1249 37.7142 43.758 36.6831C45.2084 37.085 45.3307 36.5258 45.3307 36.5258C45.3307 36.5258 44.0026 36.5433 43.4609 35.6171C44.5094 35.9841 44.9987 35.5997 44.9987 35.5997C44.9987 35.5997 42.9716 34.8308 42.9192 34.3589H43.7929ZM41.7658 36.6132L41.8182 36.2113C41.958 41.0519 45.4705 41.8034 45.4705 44.2149C45.4705 44.2848 45.4531 44.3722 45.4531 44.4421H44.8414C44.8764 44.0052 44.789 43.5684 44.457 43.1315C42.1677 40.0733 42.0629 39.4267 42.0629 39.4267C42.2551 41.7509 43.7405 42.0305 44.09 44.4596H43.1463C42.7794 42.6422 40.9619 41.9432 41.7658 36.6132ZM41.9755 44.4421H40.2804L41.1891 42.9917C41.6435 43.5858 41.8881 44.0402 41.9755 44.4421ZM39.2319 44.4421H38.1135C39.7736 41.349 38.8474 36.3161 40.2804 34.7783C39.2843 36.5783 40.8571 40.8947 39.2319 44.4421ZM39.6862 32.8036C39.0222 33.3978 35.9116 36.1239 36.8727 43.5334C37.8513 41.9432 37.0125 35.8793 39.9134 33.6774C37.9038 36.1239 38.9698 40.5102 37.5018 44.4596H36.0863C36.4708 41.2616 34.7058 36.4734 39.6862 32.8036ZM33.9893 44.4421H33.3253C33.7796 43.7781 34.1466 42.9917 34.5136 42.1004C34.5485 42.6422 34.4087 43.5684 33.9893 44.4421ZM37.1873 31.6852C37.7814 32.3493 34.0767 34.0094 32.2418 33.3803C35.3 33.4152 36.5757 31.0212 37.1873 31.6852ZM32.9583 34.1143C35.0553 34.1143 36.296 33.4327 36.8203 32.891C36.6106 34.3939 35.0029 34.9181 32.9758 34.9181C30.9486 34.9181 29.0613 32.6638 27.506 34.1842C30.2321 33.8696 30.6341 36.753 33.7272 35.7744C31.071 38.6404 29.1137 33.59 26.0556 35.0579C27.6109 31.3357 30.8787 34.1143 32.9583 34.1143ZM17.7898 38.7277C19.38 36.3861 20.6208 39.619 23.2595 37.819C24.1333 39.1996 21.9838 40.0733 20.7256 39.3044C19.4674 38.518 18.4538 38.4831 17.7898 38.7277ZM25.5138 40.4228C24.343 41.3315 21.3722 42.2403 21.4072 40.3005C24.5003 40.8947 25.2168 36.5084 27.9778 37.8015C27.2963 37.9064 26.6672 39.5316 25.5138 40.4228ZM34.1641 39.4093C34.1641 41.0694 33.9369 42.2927 33.5524 43.1839L29.0788 44.4421H25.0944L34.1641 39.4093ZM51.0626 22.9651C50.7131 23.5068 51.6043 23.9786 52.5305 23.4893C53.3519 23.0874 53.9111 22.5457 55.1693 22.5457C55.9906 22.5457 57.1265 23.9612 57.7556 22.9301C58.1925 23.5418 57.5983 24.2582 56.6197 24.2582C55.6236 24.2582 55.1868 23.4544 53.981 23.4544C52.7577 23.4544 52.5131 24.2058 50.8879 24.2058C49.2627 24.2058 48.9306 21.2874 51.0801 21.0428C49.8918 22.0564 50.3287 22.9651 51.0626 22.9651ZM64.3613 7.93638C63.6797 10.8897 61.5128 9.94602 59.6255 12.4974C57.7381 15.0488 60.4468 19.4875 55.2392 19.4351C59.608 18.3341 56.8644 15.1536 58.9265 12.0605C60.1148 10.2781 63.2603 10.348 64.3613 7.93638ZM52.2859 14.6643C52.2859 14.6643 51.7441 16.7614 52.9499 17.9322C50.3986 17.0235 52.2859 14.6643 52.2859 14.6643ZM64.2739 9.57905C63.6098 11.746 62.3341 11.3965 60.9536 13.4236C59.3633 15.1886 61.4778 20.3088 57.0741 20.1865C60.5691 19.138 58.6469 15.5556 60.3245 13.0741C61.2507 11.6586 63.3302 11.3091 64.2739 9.57905ZM63.5749 21.3224C63.0331 21.6719 61.5827 23.2621 60.6915 23.6815C60.6915 22.6505 62.8584 19.2079 66.4932 20.6933C66.0913 21.0603 64.5535 20.6583 63.5749 21.3224ZM60.9186 25.8834C59.276 25.3941 58.21 26.6873 57.9304 26.1106C57.7906 25.3417 60.1148 25.3417 60.9186 25.8834ZM62.5613 24.8873C62.5089 19.7846 69.2019 22.4408 69.9883 18.8584C70.5475 22.5981 63.9768 22.3709 62.5613 24.8873ZM60.7439 28.0678C58.1576 26.9494 56.812 28.5397 56.6896 27.7882C56.5149 26.6698 59.8701 26.7747 60.7439 28.0678ZM53.2295 9.14217C54.9596 12.6722 48.8607 13.6333 51.4645 17.9147C47.6025 14.7517 53.4392 11.9033 53.2295 9.14217ZM49.9442 36.0016C50.1015 35.9142 50.2063 35.5123 50.2762 35.3899C50.9403 34.9531 51.7791 34.7084 52.1111 34.4463C52.0587 35.1803 50.6083 36.1414 49.9442 36.0016ZM43.758 24.5903C42.7444 24.3806 41.5561 25.3941 40.3678 25.9533C41.4687 27.5436 44.0376 27.6659 45.0511 28.2251C45.2958 27.8756 46.0472 25.0446 43.758 24.5903ZM42.5871 27.1766C41.5386 26.7747 41.993 24.765 43.3735 25.0621C43.2861 25.2019 42.6396 26.4426 42.5871 27.1766ZM43.3735 27.4038C43.8279 26.9145 44.1599 25.7262 44.2298 25.5339C45.2434 26.3203 44.2473 27.7358 43.3735 27.4038ZM43.1638 23.5243C42.0279 23.5243 39.6163 25.9708 39.0571 23.5767C39.0571 23.5767 39.4241 23.699 39.8785 23.6641C40.2804 22.2661 42.5522 20.9904 43.9327 21.3748C42.3075 21.4972 41.0668 22.633 41.259 23.3146C41.5037 24.1883 42.9192 22.8428 44.1249 22.8428C45.5404 22.8428 46.3268 24.2932 47.4278 22.9651C47.3579 25.831 44.1774 23.5243 43.1638 23.5243ZM47.1132 8.46063L48.319 11.6236C48.319 11.6236 47.2181 12.9168 47.2181 15.2061C47.2181 19.6972 50.9053 20.1166 50.6432 18.3167C48.0569 19.505 47.9345 15.7478 48.6336 14.9439C48.6336 14.9439 48.1617 16.9012 49.8918 17.6177C47.585 13.7906 52.1286 12.3401 52.1286 9.28198C52.1286 6.74807 50.5558 5.90925 50.6083 3.56757C50.6432 0.754059 54.7848 0.0200996 54.8198 1.12104C54.8547 1.88995 51.814 1.97732 51.7616 4.87821C51.7267 7.58687 54.7499 8.25093 54.68 10.8897C54.6276 12.6197 51.5344 14.21 53.4742 17.4604L57.8779 5.03549L54.4703 8.8451C53.4043 7.49951 52.548 7.37717 52.548 4.96559C52.548 2.55401 55.2392 2.20452 55.2392 1.06863C55.2392 0.159914 53.8936 0.0375706 52.915 0.00262017C51.3946 -0.0672807 48.7035 1.26085 48.7035 4.05688C48.7035 6.85292 50.6083 8.30337 48.7209 10.9421L47.1132 8.46063ZM51.0976 7.849C52.3034 11.6586 48.3365 12.6722 48.0044 15.1711C47.7598 12.1479 51.5519 10.7149 51.0976 7.849ZM40.9969 29.9901L40.8571 29.7804C40.5775 29.3435 40.7173 28.3649 40.7173 28.3649C40.0882 28.33 39.0746 29.5532 39.0746 29.5532C39.0746 29.5532 38.6377 28.1028 40.1755 27.4737C40.0532 27.2465 40.1406 27.0018 40.1406 27.0018C41.3988 28.2775 43.6007 28.2076 44.2298 28.6445C44.2647 28.662 40.4726 27.9979 40.9969 29.9901ZM32.9233 10.9771L35.6844 12.3052C35.7718 13.2488 36.1562 14.2624 37.1349 15.3983C38.2008 16.6565 41.1367 17.041 41.259 19.9768C42.1502 19.0856 41.4512 16.9885 39.4591 15.8177C32.0146 11.4489 44.5444 4.59861 36.4883 2.15208C43.4434 1.68025 40.4726 7.97132 41.0318 10.4878C41.8007 13.9653 45.0162 13.1265 46.7288 15.2934L44.8414 4.73842L43.0415 12.113C40.6823 11.7635 41.5211 8.40822 41.5736 5.36753C41.6784 -0.399297 31.8224 1.24337 33.1505 4.51124C33.6573 5.75198 36.9951 2.9909 37.0125 5.89178C37.03 7.88396 35.7893 9.59653 35.6495 11.5538L32.9233 10.9771ZM33.867 4.02192C33.2029 3.20059 36.5232 2.27441 37.1349 4.33648C35.4747 3.25302 34.1641 4.40638 33.867 4.02192ZM46.3618 18.7011C47.8297 13.4236 36.5058 16.2546 39.7736 10.0509C38.5329 16.1847 48.7384 13.0042 46.3618 18.7011ZM58.0177 29.9552C63.9069 27.963 65.7068 37.7316 69.1495 37.6617C71.2465 37.6093 72.0678 36.2462 73.5882 35.8967C72.5222 36.5783 71.0368 38.4307 69.1495 38.4831C63.9418 38.5879 64.0817 30.427 58.0177 29.9552ZM44.7016 17.2157C44.7016 16.9711 44.6143 16.7439 44.4395 16.6041C43.3386 15.5206 40.1406 15.7478 38.6727 14.2275C35.3 10.8547 41.7833 8.00628 39.5639 3.21807C43.6182 6.55583 34.8107 12.5149 40.6998 14.5071C43.1638 15.3459 44.0026 15.6604 44.6143 16.1148C45.0162 16.4119 45.2608 16.9012 45.2608 17.4429C45.2608 18.3866 44.5094 19.138 43.5657 19.138C43.059 19.138 42.6046 18.9108 42.3075 18.5788C41.6609 17.8798 41.8706 16.6216 41.3988 16.2546C42.1852 16.0973 42.6046 17.4604 43.391 17.9497C43.5308 18.0371 43.6706 18.0895 43.8453 18.0895C44.3172 18.072 44.7016 17.6875 44.7016 17.2157ZM35.4398 19.6797C36.0339 21.1127 37.729 21.602 38.795 21.637C36.5757 24.4505 34.898 20.9729 35.4398 19.6797ZM50.3986 36.8928C50.6782 36.7181 50.9927 36.3511 51.115 36.1414C52.0762 35.7744 52.5655 35.5997 52.6179 35.4249C52.8451 36.0365 51.5519 37.2074 50.3986 36.8928ZM58.7692 24.3631C58.1226 24.7126 57.7556 25.4815 57.511 25.0796C57.4061 24.8873 57.9304 24.2582 58.7692 24.3631ZM56.812 25.6388C55.6411 25.0971 54.4353 24.066 53.4392 24.2757C51.115 24.7301 51.9014 27.5611 52.1286 27.9106C53.1596 27.3514 55.711 27.229 56.812 25.6388ZM54.6101 26.8096C54.6101 26.8096 53.9111 24.8524 53.8237 24.6776C55.2042 24.398 55.6411 26.4077 54.6101 26.8096ZM52.9499 25.1844C53.0373 25.3592 53.3519 26.565 53.8062 27.0543C52.9499 27.3863 51.9364 25.9708 52.9499 25.1844ZM61.8972 18.7885C60.8662 19.9244 60.9361 20.868 59.3808 21.8466C61.3905 22.7029 61.4604 20.0467 63.47 19.4526C64.8506 19.0506 65.8816 20.7108 67.8563 19.8021C69.831 18.8933 69.1145 15.241 70.0757 13.6333C71.0368 12.0256 73.6756 10.5227 75.5454 13.7731C75.5454 13.7731 72.3824 10.6625 70.9145 14.3673C71.9455 13.511 73.4658 13.2314 73.4658 14.0702C72.662 14.3323 71.3513 14.7867 71.3164 17.705C71.2814 21.0777 69.9009 21.8117 68.8524 22.4932C67.332 23.5068 63.7496 23.4544 62.9807 25.7436L75.3182 20.2389H71.5436C72.0329 17.4779 70.9494 13.3537 76.1046 14.3323C76.7337 12.9518 72.4348 8.56549 68.7126 13.5809L68.3631 12.3227C67.5767 19.0157 64.0467 16.4293 61.8972 18.7885ZM68.4155 15.4333C69.0446 16.5167 67.1573 18.4914 67.1573 18.4914C67.6466 18.6662 67.6291 19.3826 67.0175 19.5574C65.8816 19.8894 65.0078 18.6137 63.5749 18.9982C63.872 18.4914 66.8427 18.5963 68.4155 15.4333ZM33.5699 21.602C33.5524 19.4176 34.6534 18.2118 32.6612 16.8487C36.5407 17.6876 32.7136 23.4019 37.9212 23.3146C36.7329 25.0271 33.5874 24.2408 33.5699 21.602ZM58.4372 10.1033V7.48202L59.1362 9.80624C60.6915 9.35188 62.6836 8.54801 62.6312 7.13252C62.5788 5.71703 61.0934 5.1054 61.0584 4.23164C61.0235 2.921 65.4971 3.6899 65.4971 7.849C65.4971 10.8023 64.4661 11.6935 64.4661 11.6935L68.2408 9.73633L61.6701 18.2293C61.6701 18.2293 59.6604 21.3224 58.2974 20.7632C59.573 20.5185 61.2157 18.439 61.2157 16.6041C61.2157 14.1576 63.1555 12.6023 63.7321 11.8334C64.3438 11.012 67.3146 5.40248 62.0545 4.05688C65.4797 7.55193 62.439 9.15965 59.5381 10.2606C56.777 11.3091 57.5983 15.573 56.7595 17.041C55.8683 18.5438 53.4392 19.1031 52.9849 19.0856C53.7887 17.6701 55.4664 17.2157 56.078 15.5905C56.7421 13.9129 55.9032 11.4139 58.4372 10.1033Z" fill="#161616"/>
</svg>
