<svg width="177" height="38" viewBox="0 0 177 38" fill="none" xmlns="http://www.w3.org/2000/svg">
<mask id="mask0_448_2" style="mask-type:luminance" maskUnits="userSpaceOnUse" x="0" y="0" width="177" height="38">
<path d="M177 0H0V37.3667H177V0Z" fill="white"/>
</mask>
<g mask="url(#mask0_448_2)">
<mask id="mask1_448_2" style="mask-type:luminance" maskUnits="userSpaceOnUse" x="-1" y="0" width="179" height="38">
<path d="M-0.000610352 0.11377H177V37.253H-0.000610352V0.11377Z" fill="white"/>
</mask>
<g mask="url(#mask1_448_2)">
<path d="M5.56706 21.6021V0.807648H0.00909424V36.5223H5.56706V27.4007V21.6021Z" fill="#161616"/>
<path d="M27.6438 11.3077L5.56689 21.6023L5.1286 21.8134L5.17087 27.5631L5.56689 27.4009L27.6438 17.1063L28.0437 16.9394L28.0581 11.1211L27.6438 11.3077Z" fill="#161616"/>
<path d="M27.6438 11.3075V17.1061V36.5223H33.2018V0.807648H27.6438V11.3075Z" fill="#161616"/>
<path d="M57.698 0.866228L51.6921 0.853806L51.685 0.932972L36.5779 36.5223H42.6157L43.847 33.6219L57.6414 0.979138L57.698 0.866228Z" fill="#161616"/>
<path d="M67.5976 16.7432L46.8164 26.4363L43.7454 33.6748L64.6629 23.9154L67.5976 16.7432Z" fill="#161616"/>
<path d="M76.0522 36.5223L60.9488 0.941692L60.8854 0.863083L54.8793 0.866234L54.9316 0.925563L62.5718 19.0395L64.663 23.9154L70.0142 36.5223H76.0522Z" fill="#161616"/>
<path d="M89.8968 33.0804L76.1977 0.807587H70.1597L85.3198 36.5222L91.3737 36.5284L89.8968 33.0804Z" fill="#161616"/>
<path d="M103.596 0.807587L89.8968 33.0804L88.4147 36.5284L94.4738 36.5222L109.634 0.807587H103.596Z" fill="#161616"/>
<path d="M124.866 0.866228L118.905 0.853806L118.844 0.951883L103.746 36.5223H109.783L111.015 33.6219L124.839 0.907943L124.866 0.866228Z" fill="#161616"/>
<path d="M134.765 16.7432L113.984 26.4363L110.913 33.6748L131.83 23.9154L134.765 16.7432Z" fill="#161616"/>
<path d="M143.22 36.5223L128.113 0.932794L128.057 0.863083L122.047 0.856964L122.104 0.936687L129.739 19.0395L131.831 23.9154L137.182 36.5223H143.22Z" fill="#161616"/>
<path d="M171.092 26.7397C170.599 29.6379 165.629 31.7816 160.571 31.7816C155.242 31.7816 150.006 29.4027 150.006 26.2679H144.227C144.227 32.8953 151.722 37.2051 160.571 37.2051C168.073 37.2051 174.601 34.1078 176.416 29.1272C176.42 29.137 171.916 27.0445 171.101 26.6782C171.018 26.6407 171.092 26.7397 171.092 26.7397Z" fill="#161616"/>
<path d="M149.927 10.8863C149.927 10.8863 144.579 8.33755 144.551 8.42265C144.477 8.65032 144.413 8.88189 144.358 9.11716C144.214 9.7403 144.139 10.3892 144.139 11.062V14.1714L171.092 26.7398C171.092 26.7398 176.375 29.2403 176.418 29.1213C176.464 28.9948 176.507 28.8671 176.547 28.7382C176.788 27.9571 176.915 27.1323 176.915 26.2679V23.4711L149.927 10.8863Z" fill="#161616"/>
<path d="M149.927 10.8863C150.111 7.83901 155.045 5.54837 160.274 5.54837C165.604 5.54837 170.631 7.92726 170.631 11.062H176.41C176.41 4.43466 169.123 0.124817 160.274 0.124817C152.639 0.124817 146.168 3.33319 144.536 8.47011C144.539 8.46177 148.248 10.2007 149.737 10.8711C149.782 10.9 149.927 10.8863 149.927 10.8863Z" fill="#161616"/>
</g>
</g>
</svg>
