<svg width="142" height="47" viewBox="0 0 142 47" fill="none" xmlns="http://www.w3.org/2000/svg">
<path d="M54.5284 40.4868C49.2448 37.0893 42.074 36.4925 30.5098 39.6959C18.1818 42.5874 14.071 44.4414 8.67231 40.7207C6.59915 38.8923 5.85509 35.9497 6.4103 31.7087C7.69819 24.7974 11.1785 18.1454 17.3596 10.7678C20.8101 6.92942 24.0107 3.63534 28.2365 2.31288C31.4754 1.48369 31.173 4.02371 30.781 4.38799C30.3678 4.38799 29.6721 4.45318 29.1353 4.80329C28.6994 5.14064 27.5038 6.23063 27.4385 7.6948C27.3462 9.93863 29.6721 9.47087 30.6745 8.2391C31.7552 6.85146 33.354 4.1938 32.096 1.71615C31.5691 0.834511 30.6589 0.225023 29.5287 0.0180792C25.6592 -0.203038 22.0554 1.63819 18.7285 3.67502C11.4569 8.7182 5.63784 15.7075 2.34496 23.3573C0.44647 27.9739 -1.27026 34.5861 1.30271 39.9666C3.29349 43.7016 7.42557 45.6845 12.3571 45.2692C15.8147 44.9063 19.9964 43.7909 22.8094 43.1176C25.6223 42.4429 40.0179 37.5032 44.7492 46.1013C44.7492 46.1013 46.3225 43.0538 50.253 42.9886C53.4847 42.6909 58.1465 43.9227 61.543 46.4117C60.4114 44.7136 57.2051 42.2104 54.5299 40.4854L54.5284 40.4868Z" fill="#161616"/>
<path d="M31.9786 11.6349C29.2864 9.87165 23.8735 13.2423 19.5398 19.0253C15.5753 24.2131 13.8642 30.2414 15.7273 33.0294C18.4975 36.3094 23.6421 31.5383 25.8288 28.9842L26.1114 28.6851C27.5995 27.0904 28.7483 25.1713 29.8601 23.3301C29.8601 23.3301 30.8825 21.6447 30.9307 21.5667C31.5626 21.4506 32.3237 21.2691 33.1814 21.0225C33.1686 21.0608 29.8998 26.5462 30.2335 29.2691C30.3372 30.0996 30.2577 33.1343 33.2254 34.0543C37.1799 34.7161 40.3394 31.656 43.1253 28.9317C43.1253 28.9317 43.5996 28.4781 43.8694 28.2187C43.8013 28.4909 43.7132 28.8523 43.7132 28.8523C42.5545 32.8721 44.1165 33.7155 45.092 34.0273C48.0426 34.8834 51.5684 30.6042 51.5798 30.6042C51.4889 31.9522 51.2205 33.0677 52.6447 33.9621C53.988 34.4427 55.3483 33.7098 56.3821 33.0224C60.1052 30.403 63.1041 26.3038 65.5267 22.7602H63.9817C63.9632 22.7602 60.1691 28.2513 57.7041 29.4433C57.6998 29.4433 57.2511 29.673 56.9941 29.4915C56.6746 29.2195 56.801 28.6525 56.9984 28.2513C57.0111 28.2258 66.5121 11.7738 66.5121 11.7738H62.025C62.025 11.7738 61.5351 12.5647 61.4954 12.6172C61.4655 12.5917 61.3931 12.4556 61.3434 12.3904C58.5631 8.55199 52.2699 14.4556 47.53 21.3017C45.7054 23.9339 43.3824 26.8977 40.9741 29.038C40.9741 29.038 37.4057 32.3023 35.8807 29.9579C35.3241 28.9728 35.4945 27.5313 35.8097 26.5845C37.5846 21.5398 40.6432 16.963 44.125 14.2004C45.1076 13.4365 46.1754 13.2154 46.7051 13.5385C47.2106 13.8376 47.2915 14.576 46.972 15.0821C46.1612 15.0566 45.5123 15.3018 44.984 15.8475C43.9433 16.9375 43.5826 17.9878 43.9134 18.9729C45.5194 21.255 48.7242 16.7419 48.5695 13.9935C48.5141 13.0084 47.9873 12.0743 47.2007 11.6207C46.0292 10.9206 44.2415 11.1019 43.0842 11.6604C41.5364 12.2444 39.0842 14.2798 37.6542 15.8617C35.8537 17.8461 32.7639 20.0501 31.7983 19.8035C32.115 18.9601 34.7234 13.6307 31.9786 11.6349ZM53.6089 19.5186C54.4822 18.3124 57.0211 15.0835 57.6416 14.5392C59.7247 12.7107 60.5567 13.5144 60.6291 14.0856C58.6852 17.5611 56.3906 21.5412 54.2337 25.1202C54.238 25.1075 53.5592 26.1451 53.5592 26.1451C52.6064 27.5965 51.648 28.8424 50.0831 29.7112C49.8602 29.7764 49.4925 29.802 49.2468 29.6205C48.9514 29.4263 48.8364 29.1018 48.8691 28.7645C48.9628 27.6503 50.1002 24.24 53.6089 19.52V19.5186ZM29.2026 21.6064C29.2026 21.6064 29.1628 21.7241 29.1444 21.7623C29.1401 21.7623 27.1877 24.9388 27.1877 24.9388C26.0106 26.5079 24.5395 28.4795 22.7021 29.4263C22.1568 29.6078 21.4042 29.7254 21.0209 29.245C20.2072 28.2726 20.6261 26.9232 20.9669 25.8346L21.0875 25.4463C22.0645 22.8013 23.6137 20.4669 25.1217 18.3011C25.1401 18.2883 25.1827 18.2755 25.1984 18.2755C25.2026 18.2883 25.2083 18.2883 25.2111 18.3152C26.1583 20.1309 27.9318 20.9729 29.2594 21.3627C29.2679 21.3627 29.2764 21.3755 29.2764 21.4024C29.2764 21.4407 29.2551 21.4931 29.2026 21.6093V21.6064ZM31.0514 17.8588C31.0429 17.8843 30.1824 19.8559 30.1824 19.8559C30.0574 19.9594 29.8615 19.9084 29.6357 19.8559L29.2495 19.7907C28.0369 19.4151 27.1224 18.6115 26.8398 17.6519C26.4507 15.7851 28.0482 14.3195 28.7525 13.7879C29.4284 13.3203 30.4778 13.075 31.0884 13.5541C31.4647 13.9949 31.6066 14.5661 31.6066 15.1884C31.6066 16.0304 31.3468 16.9772 31.05 17.8602L31.0514 17.8588Z" fill="#161616"/>
<path d="M87.7642 23.8761C87.3308 22.9421 86.3046 22.3468 85.2097 22.4106C81.6552 22.7352 78.1792 25.6522 76.3549 29.8407C75.3975 31.9937 74.8736 33.7697 74.5315 36.5961C75.6359 35.3261 77.8915 33.2382 80.4482 32.0972C80.4482 32.0972 80.7965 29.3871 82.5715 26.9746C83.2426 25.9753 84.5879 24.368 86.0968 24.7961C87.4159 25.2369 86.9518 28.881 85.2 32.4076C83.9033 35.0015 81.9183 37.5954 79.9101 39.3841C78.1351 40.8881 75.5081 42.7038 73.2109 41.3034C71.764 40.4472 71.0256 38.6585 71.1818 36.3495C71.8734 29.801 74.8594 24.2263 79.1321 17.872C83.5386 11.9727 88.3943 5.91604 94.9375 2.68715C96.2723 2.01246 97.5077 1.85796 98.5772 2.27185C98.5772 2.27185 92.4345 5.64389 89.5078 11.8806C88.7627 13.4624 87.7269 15.6012 88.7709 17.495C89.3158 18.48 90.2829 18.558 91.0624 18.507C94.6512 17.6764 96.9696 14.3313 98.8641 11.271C99.9613 8.95074 100.939 6.64175 100.939 4.07481C100.939 3.76297 100.923 3.34909 100.896 3.03726C102.61 2.1301 106.127 3.73746 106.127 3.73746C108.874 4.64603 114.725 9.11942 116.697 9.97414C117.66 8.8586 119.242 7.17329 120.132 6.32992L118.843 5.539C116.778 4.28175 114.597 3.08829 112.449 1.90899C107.571 -0.748675 103.601 0.183989 101.58 0.911126C100.786 1.19603 100.061 1.44266 100.061 1.44266C98.5615 -0.191627 96.1019 -0.0357109 94.2902 0.405107C87.7739 2.27185 81.7232 6.82318 75.2376 14.7211C70.4676 20.9066 67.5098 26.2489 65.9337 31.526C64.7181 35.078 64.3489 40.3041 67.3153 43.404C69.8371 46.0361 73.1811 45.4649 75.5425 44.5194C80.659 42.0035 85.2575 36.5833 87.5497 30.3467C88.102 28.4927 88.7171 25.8733 87.7642 23.8761ZM99.5286 4.33561C98.8514 12.0903 92.8134 16.6417 91.318 17.0045C90.4122 17.186 88.8673 16.7834 90.2477 13.5304C92.2783 9.14776 95.7454 5.42561 99.4658 3.51918C99.557 3.84377 99.554 4.05071 99.5271 4.33561H99.5286Z" fill="#161616"/>
<path d="M135.352 5.32297C132.105 7.1642 128.736 8.35765 124.661 7.94233C123.533 9.21379 122.432 10.5235 121.418 11.8715C127.139 13.3243 133.203 10.0955 136.586 7.02246C140.164 3.92255 141.999 0.020401 141.999 0.020401C141.999 0.020401 139.317 3.08061 135.352 5.32297Z" fill="#161616"/>
<path d="M71.561 15.6749L73.965 11.7769H69.7051L67.3011 15.6749H71.561Z" fill="#161616"/>
<path d="M124.642 40.844C124.183 41.1544 123.54 40.9163 123.781 40.2033C124.381 38.3876 126.763 34.6881 126.763 34.6881L133.401 22.9363H128.854C128.638 23.2907 128.175 24.1042 128.175 24.1042C127.965 23.7541 127.336 22.9774 127.077 22.8087C125.967 22.1085 124.337 22.4388 123.213 23.0752C118.325 25.9285 114.758 31.5655 111.945 35.961C111.945 35.961 108.984 40.8482 107.34 41.2111C106.056 41.3146 106.19 39.5895 106.245 39.187C106.741 36.2827 107.894 33.5202 109.054 31.017C111.415 29.3827 114.109 27.2438 116.558 24.8966C121.872 19.8265 126.352 14.0817 127.006 12.7975C127.006 12.7975 126.298 12.9407 125.46 12.9661C121.372 18.6585 113.006 26.932 110.469 28.1637C111.593 25.4664 118.852 12.5906 125.03 6.43184L126.003 5.49776C127.506 4.03215 129.062 2.52827 130.277 2.28164C130.405 2.26888 130.569 2.28164 130.713 2.58072C130.766 3.72173 130.342 4.5651 129.854 5.52469L129.169 6.92511C129.169 6.92511 130.138 6.74368 130.775 6.53531C131.514 5.14908 132.331 3.59134 132.03 1.73877C131.929 1.14203 131.496 0.688457 130.931 0.584985C129.088 0.234882 127.08 1.5956 125.464 2.69836L125.399 2.73663C117.092 9.23267 110.078 18.5947 103.945 31.3799C103.501 31.7158 101.783 32.1183 101.491 31.9241C102.096 30.6797 102.86 29.0071 103.241 27.1914C103.307 26.6726 103.369 26.141 103.369 25.6223C103.369 24.5068 103.1 23.4565 102.099 22.7308C100.925 22.1468 99.4733 22.4203 98.4949 22.8598C94.1116 24.6755 90.8344 29.1616 88.4705 32.8568C87.1977 35.204 85.9309 37.7185 85.5789 40.5973C85.3323 42.8524 85.8345 44.3053 87.12 45.0324C88.4421 45.7057 90.1042 45.0055 90.7574 44.6696C95.199 42.3351 98.3021 37.6548 100.748 33.3756C100.845 33.3628 102.181 33.3246 103.191 33.0652C103.203 33.0652 103.209 33.0652 103.232 33.0794C103.174 33.2735 102.653 34.8298 102.653 34.8298C101.102 39.3684 100.385 42.4541 101.851 44.2827C103.943 46.8638 107.407 44.1919 110.226 40.664C109.62 44.8907 111.816 45.5526 113.489 45.228C115.409 44.7092 117.552 42.6597 118.545 41.6108C118.225 42.8425 118.312 45.0466 120.06 45.2677C121.258 45.4888 122.154 44.8382 123.192 44.2798C126.914 42.2571 131.37 35.5159 132.526 33.567H131.009C129.365 36.0474 127.272 39.3004 124.641 40.844H124.642ZM91.235 40.3918C90.9988 40.0417 90.9211 39.659 90.9121 39.2451C90.8673 36.7022 93.6079 32.1495 95.5413 29.669H95.5458C96.3567 31.4408 98.193 32.579 99.2999 33.0595C97.924 36.1197 93.2043 42.6738 91.235 40.3918ZM100.077 31.6917C99.9463 31.7824 97.6302 31.0043 97.1848 28.8653C96.8051 27.0241 98.0764 25.584 99.3043 24.8583C99.8327 24.443 100.626 24.3012 101.21 24.5082C101.751 24.8725 101.897 25.5203 101.897 26.2204C101.897 26.6485 101.84 27.0893 101.789 27.4919L101.778 27.5826C101.392 29.0212 100.803 30.4344 100.076 31.6931L100.077 31.6917ZM118.643 39.5753L118.204 39.9637C117.579 40.5208 116.938 41.1175 116.162 40.8199C115.947 40.7419 115.797 40.457 115.761 40.2359C115.725 38.6413 116.444 37.1629 117.142 35.7243L117.321 35.3486C119.327 32.0035 121.662 28.0617 125.086 25.3261C125.665 24.9108 126.291 24.5606 126.952 24.8328C127.104 24.9745 127.282 25.2212 127.282 25.4678C127.282 25.5458 127.213 25.7527 127.172 25.8179C126.216 27.3615 125.304 28.983 124.418 30.5379C122.686 33.6109 120.889 36.7873 118.643 39.5753Z" fill="#161616"/>
</svg>
