<svg width="171" height="51" viewBox="0 0 171 51" fill="none" xmlns="http://www.w3.org/2000/svg">
<path d="M112.2 24.1C111.3 24.1 110.6 24.8 110.6 25.7C110.6 26.6 111.3 27.3 112.2 27.3C113.1 27.3 113.8 26.6 113.8 25.7C113.8 24.9 113.1 24.1 112.2 24.1Z" fill="#161616"/>
<path d="M112.2 14.5C111.3 14.5 110.6 15.2 110.6 16.1C110.6 17 111.3 17.7 112.2 17.7C113.1 17.7 113.8 17 113.8 16.1C113.8 15.2 113.1 14.5 112.2 14.5Z" fill="#161616"/>
<path d="M112.2 19.3C111.3 19.3 110.6 20 110.6 20.9C110.6 21.8 111.3 22.5 112.2 22.5C113.1 22.5 113.8 21.8 113.8 20.9C113.8 20 113.1 19.3 112.2 19.3Z" fill="#161616"/>
<path d="M116.4 7.20001C115.5 7.20001 114.8 7.90001 114.8 8.80001C114.8 9.70001 115.5 10.4 116.4 10.4C117.3 10.4 118 9.70001 118 8.80001C118 7.90001 117.3 7.20001 116.4 7.20001Z" fill="#161616"/>
<path d="M116.4 3C115.8 3 115.4 3.5 115.4 4C115.4 4.6 115.9 5 116.4 5C117 5 117.4 4.5 117.4 4C117.4 3.5 116.9 3 116.4 3Z" fill="#161616"/>
<path d="M112.2 32.2C113.1 32.2 113.8 31.5 113.8 30.6C113.8 29.7 113.1 29 112.2 29C111.3 29 110.6 29.7 110.6 30.6C110.6 31.5 111.3 32.2 112.2 32.2Z" fill="#161616"/>
<path d="M112.2 9.60001C111.3 9.60001 110.6 10.3 110.6 11.2C110.6 12.1 111.3 12.8 112.2 12.8C113.1 12.8 113.8 12.1 113.8 11.2C113.8 10.3 113.1 9.60001 112.2 9.60001Z" fill="#161616"/>
<path d="M108 26.6C107.1 26.6 106.4 27.3 106.4 28.2C106.4 29.1 107.1 29.8 108 29.8C108.9 29.8 109.6 29.1 109.6 28.2C109.6 27.3 108.9 26.6 108 26.6Z" fill="#161616"/>
<path d="M108 24.4C108.6 24.4 109 23.9 109 23.4C109 22.8 108.5 22.4 108 22.4C107.4 22.4 107 22.9 107 23.4C107 23.9 107.4 24.4 108 24.4Z" fill="#161616"/>
<path d="M99.6 24.4C100.2 24.4 100.6 23.9 100.6 23.4C100.6 22.8 100.1 22.4 99.6 22.4C99 22.4 98.6 22.9 98.6 23.4C98.6 23.9 99.1 24.4 99.6 24.4Z" fill="#161616"/>
<path d="M103.8 36.5C104.4 36.5 104.8 36 104.8 35.5C104.8 35 104.3 34.5 103.8 34.5C103.2 34.5 102.8 35 102.8 35.5C102.8 36 103.3 36.5 103.8 36.5Z" fill="#161616"/>
<path d="M108 12.7C107.4 12.7 107 13.2 107 13.7C107 14.3 107.5 14.7 108 14.7C108.6 14.7 109 14.2 109 13.7C109 13.1 108.6 12.7 108 12.7Z" fill="#161616"/>
<path d="M99.6 12.7C99 12.7 98.6 13.2 98.6 13.7C98.6 14.3 99.1 14.7 99.6 14.7C100.2 14.7 100.6 14.2 100.6 13.7C100.6 13.1 100.2 12.7 99.6 12.7Z" fill="#161616"/>
<path d="M112.2 4.79999C111.3 4.79999 110.6 5.49999 110.6 6.39999C110.6 7.29999 111.3 7.99999 112.2 7.99999C113.1 7.99999 113.8 7.29999 113.8 6.39999C113.8 5.49999 113.1 4.79999 112.2 4.79999Z" fill="#161616"/>
<path d="M112.2 0.600006C111.6 0.600006 111.2 1.10001 111.2 1.60001C111.2 2.20001 111.7 2.60001 112.2 2.60001C112.8 2.60001 113.2 2.10001 113.2 1.60001C113.2 1.00001 112.7 0.600006 112.2 0.600006Z" fill="#161616"/>
<path d="M108 34.7C108.9 34.7 109.6 34 109.6 33.1C109.6 32.2 108.9 31.5 108 31.5C107.1 31.5 106.4 32.2 106.4 33.1C106.4 34 107.1 34.7 108 34.7Z" fill="#161616"/>
<path d="M116.4 16.9C115.5 16.9 114.8 17.6 114.8 18.5C114.8 19.4 115.5 20.1 116.4 20.1C117.3 20.1 118 19.4 118 18.5C118 17.6 117.3 16.9 116.4 16.9Z" fill="#161616"/>
<path d="M135 12.1C134.1 12.1 133.4 12.8 133.4 13.7C133.4 14.6 134.1 15.3 135 15.3C135.9 15.3 136.6 14.6 136.6 13.7C136.6 12.8 135.9 12.1 135 12.1Z" fill="#161616"/>
<path d="M135 7.20001C134.1 7.20001 133.4 7.90001 133.4 8.80001C133.4 9.70001 134.1 10.4 135 10.4C135.9 10.4 136.6 9.70001 136.6 8.80001C136.6 7.90001 135.9 7.20001 135 7.20001Z" fill="#161616"/>
<path d="M120.6 19.3C119.7 19.3 119 20 119 20.9C119 21.8 119.7 22.5 120.6 22.5C121.5 22.5 122.2 21.8 122.2 20.9C122.2 20 121.5 19.3 120.6 19.3Z" fill="#161616"/>
<path d="M135 2.39999C134.1 2.39999 133.4 3.09999 133.4 3.99999C133.4 4.89999 134.1 5.59999 135 5.59999C135.9 5.59999 136.6 4.89999 136.6 3.99999C136.6 3.09999 135.9 2.39999 135 2.39999Z" fill="#161616"/>
<path d="M135 26.6C134.1 26.6 133.4 27.3 133.4 28.2C133.4 29.1 134.1 29.8 135 29.8C135.9 29.8 136.6 29.1 136.6 28.2C136.6 27.3 135.9 26.6 135 26.6Z" fill="#161616"/>
<path d="M135 21.7C134.1 21.7 133.4 22.4 133.4 23.3C133.4 24.2 134.1 24.9 135 24.9C135.9 24.9 136.6 24.2 136.6 23.3C136.6 22.5 135.9 21.7 135 21.7Z" fill="#161616"/>
<path d="M135 16.9C134.1 16.9 133.4 17.6 133.4 18.5C133.4 19.4 134.1 20.1 135 20.1C135.9 20.1 136.6 19.4 136.6 18.5C136.6 17.6 135.9 16.9 135 16.9Z" fill="#161616"/>
<path d="M91.2 21.7C90.3 21.7 89.6 22.4 89.6 23.3C89.6 24.2 90.3 24.9 91.2 24.9C92.1 24.9 92.8 24.2 92.8 23.3C92.9 22.5 92.1 21.7 91.2 21.7Z" fill="#161616"/>
<path d="M116.4 29.8C117.3 29.8 118 29.1 118 28.2C118 27.3 117.3 26.6 116.4 26.6C115.5 26.6 114.8 27.3 114.8 28.2C114.7 29.1 115.5 29.8 116.4 29.8Z" fill="#161616"/>
<path d="M120.6 14.5C119.7 14.5 119 15.2 119 16.1C119 17 119.7 17.7 120.6 17.7C121.5 17.7 122.2 17 122.2 16.1C122.2 15.2 121.5 14.5 120.6 14.5Z" fill="#161616"/>
<path d="M108 7.20001C107.1 7.20001 106.4 7.90001 106.4 8.80001C106.4 9.70001 107.1 10.4 108 10.4C108.9 10.4 109.6 9.70001 109.6 8.80001C109.6 7.90001 108.9 7.20001 108 7.20001Z" fill="#161616"/>
<path d="M116.4 21.7C115.5 21.7 114.8 22.4 114.8 23.3C114.8 24.2 115.5 24.9 116.4 24.9C117.3 24.9 118 24.2 118 23.3C118 22.5 117.3 21.7 116.4 21.7Z" fill="#161616"/>
<path d="M120.6 26.8C121.2 26.8 121.6 26.3 121.6 25.8C121.6 25.2 121.1 24.8 120.6 24.8C120.1 24.8 119.6 25.3 119.6 25.8C119.6 26.3 120 26.8 120.6 26.8Z" fill="#161616"/>
<path d="M120.6 9.60001C119.7 9.60001 119 10.3 119 11.2C119 12.1 119.7 12.8 120.6 12.8C121.5 12.8 122.2 12.1 122.2 11.2C122.2 10.3 121.5 9.60001 120.6 9.60001Z" fill="#161616"/>
<path d="M95.4 33.8C94.5 33.8 93.8 34.5 93.8 35.4C93.8 36.3 94.5 37 95.4 37C96.3 37 97 36.3 97 35.4C97.1 34.5 96.3 33.8 95.4 33.8Z" fill="#161616"/>
<path d="M95.4 14.5C94.5 14.5 93.8 15.2 93.8 16.1C93.8 17 94.5 17.7 95.4 17.7C96.3 17.7 97 17 97 16.1C97.1 15.2 96.3 14.5 95.4 14.5Z" fill="#161616"/>
<path d="M108 2.39999C107.1 2.39999 106.4 3.09999 106.4 3.99999C106.4 4.89999 107.1 5.59999 108 5.59999C108.9 5.59999 109.6 4.89999 109.6 3.99999C109.6 3.09999 108.9 2.39999 108 2.39999Z" fill="#161616"/>
<path d="M95.4 4.79999C94.5 4.79999 93.8 5.49999 93.8 6.39999C93.8 7.29999 94.5 7.99999 95.4 7.99999C96.3 7.99999 97 7.29999 97 6.39999C97.1 5.49999 96.3 4.79999 95.4 4.79999Z" fill="#161616"/>
<path d="M95.4 0C94.5 0 93.8 0.7 93.8 1.6C93.8 2.5 94.5 3.2 95.4 3.2C96.3 3.2 97 2.5 97 1.6C97 0.7 96.3 0 95.4 0Z" fill="#161616"/>
<path d="M95.4 29C94.5 29 93.8 29.7 93.8 30.6C93.8 31.5 94.5 32.2 95.4 32.2C96.3 32.2 97 31.5 97 30.6C97.1 29.7 96.3 29 95.4 29Z" fill="#161616"/>
<path d="M95.4 24.1C94.5 24.1 93.8 24.8 93.8 25.7C93.8 26.6 94.5 27.3 95.4 27.3C96.3 27.3 97 26.6 97 25.7C97.1 24.9 96.3 24.1 95.4 24.1Z" fill="#161616"/>
<path d="M95.4 19.3C94.5 19.3 93.8 20 93.8 20.9C93.8 21.8 94.5 22.5 95.4 22.5C96.3 22.5 97 21.8 97 20.9C97.1 20 96.3 19.3 95.4 19.3Z" fill="#161616"/>
<path d="M91.2 31.4C90.3 31.4 89.6 32.1 89.6 33C89.6 33.9 90.3 34.6 91.2 34.6C92.1 34.6 92.8 33.9 92.8 33C92.8 32.1 92.1 31.4 91.2 31.4Z" fill="#161616"/>
<path d="M91.2 36.2C90.3 36.2 89.6 36.9 89.6 37.8C89.6 38.7 90.3 39.4 91.2 39.4C92.1 39.4 92.8 38.7 92.8 37.8C92.9 37 92.1 36.2 91.2 36.2Z" fill="#161616"/>
<path d="M95.4 51C96 51 96.4 50.5 96.4 50C96.4 49.4 95.9 49 95.4 49C94.8 49 94.4 49.5 94.4 50C94.4 50.5 94.9 51 95.4 51Z" fill="#161616"/>
<path d="M91.2 26.6C90.3 26.6 89.6 27.3 89.6 28.2C89.6 29.1 90.3 29.8 91.2 29.8C92.1 29.8 92.8 29.1 92.8 28.2C92.9 27.3 92.1 26.6 91.2 26.6Z" fill="#161616"/>
<path d="M135 31.4C134.1 31.4 133.4 32.1 133.4 33C133.4 33.9 134.1 34.6 135 34.6C135.9 34.6 136.6 33.9 136.6 33C136.6 32.1 135.9 31.4 135 31.4Z" fill="#161616"/>
<path d="M91.2 41.1C90.3 41.1 89.6 41.8 89.6 42.7C89.6 43.6 90.3 44.3 91.2 44.3C92.1 44.3 92.8 43.6 92.8 42.7C92.9 41.8 92.1 41.1 91.2 41.1Z" fill="#161616"/>
<path d="M91.2 49.2C92.1 49.2 92.8 48.5 92.8 47.6C92.8 46.7 92.1 46 91.2 46C90.3 46 89.6 46.7 89.6 47.6C89.6 48.4 90.3 49.2 91.2 49.2Z" fill="#161616"/>
<path d="M95.4 9.60001C94.5 9.60001 93.8 10.3 93.8 11.2C93.8 12.1 94.5 12.8 95.4 12.8C96.3 12.8 97 12.1 97 11.2C97 10.3 96.3 9.60001 95.4 9.60001Z" fill="#161616"/>
<path d="M103.8 4.79999C102.9 4.79999 102.2 5.49999 102.2 6.39999C102.2 7.29999 102.9 7.99999 103.8 7.99999C104.7 7.99999 105.4 7.29999 105.4 6.39999C105.4 5.49999 104.7 4.79999 103.8 4.79999Z" fill="#161616"/>
<path d="M103.8 9.60001C102.9 9.60001 102.2 10.3 102.2 11.2C102.2 12.1 102.9 12.8 103.8 12.8C104.7 12.8 105.4 12.1 105.4 11.2C105.4 10.3 104.7 9.60001 103.8 9.60001Z" fill="#161616"/>
<path d="M103.8 0C102.9 0 102.2 0.7 102.2 1.6C102.2 2.5 102.9 3.2 103.8 3.2C104.7 3.2 105.4 2.5 105.4 1.6C105.4 0.7 104.7 0 103.8 0Z" fill="#161616"/>
<path d="M99.6 34.7C100.5 34.7 101.2 34 101.2 33.1C101.2 32.2 100.5 31.5 99.6 31.5C98.7 31.5 98 32.2 98 33.1C98 34 98.7 34.7 99.6 34.7Z" fill="#161616"/>
<path d="M95.4 38.7C94.5 38.7 93.8 39.4 93.8 40.3C93.8 41.2 94.5 41.9 95.4 41.9C96.3 41.9 97 41.2 97 40.3C97.1 39.4 96.3 38.7 95.4 38.7Z" fill="#161616"/>
<path d="M103.8 24.1C102.9 24.1 102.2 24.8 102.2 25.7C102.2 26.6 102.9 27.3 103.8 27.3C104.7 27.3 105.4 26.6 105.4 25.7C105.4 24.9 104.7 24.1 103.8 24.1Z" fill="#161616"/>
<path d="M103.8 32.2C104.7 32.2 105.4 31.5 105.4 30.6C105.4 29.7 104.7 29 103.8 29C102.9 29 102.2 29.7 102.2 30.6C102.2 31.5 102.9 32.2 103.8 32.2Z" fill="#161616"/>
<path d="M99.6 7.20001C98.7 7.20001 98 7.90001 98 8.80001C98 9.70001 98.7 10.4 99.6 10.4C100.5 10.4 101.2 9.70001 101.2 8.80001C101.2 7.90001 100.5 7.20001 99.6 7.20001Z" fill="#161616"/>
<path d="M99.6 2.39999C98.7 2.39999 98 3.09999 98 3.99999C98 4.89999 98.7 5.59999 99.6 5.59999C100.5 5.59999 101.2 4.89999 101.2 3.99999C101.3 3.09999 100.5 2.39999 99.6 2.39999Z" fill="#161616"/>
<path d="M95.4 43.5C94.5 43.5 93.8 44.2 93.8 45.1C93.8 46 94.5 46.7 95.4 46.7C96.3 46.7 97 46 97 45.1C97.1 44.2 96.3 43.5 95.4 43.5Z" fill="#161616"/>
<path d="M99.6 26.6C98.7 26.6 98 27.3 98 28.2C98 29.1 98.7 29.8 99.6 29.8C100.5 29.8 101.2 29.1 101.2 28.2C101.3 27.3 100.5 26.6 99.6 26.6Z" fill="#161616"/>
<path d="M116.4 12.1C115.5 12.1 114.8 12.8 114.8 13.7C114.8 14.6 115.5 15.3 116.4 15.3C117.3 15.3 118 14.6 118 13.7C118 12.8 117.3 12.1 116.4 12.1Z" fill="#161616"/>
<path d="M155.9 4.79999C155 4.79999 154.3 5.49999 154.3 6.39999C154.3 7.29999 155 7.99999 155.9 7.99999C156.8 7.99999 157.5 7.29999 157.5 6.39999C157.5 5.49999 156.8 4.79999 155.9 4.79999Z" fill="#161616"/>
<path d="M155.9 9.60001C155 9.60001 154.3 10.3 154.3 11.2C154.3 12.1 155 12.8 155.9 12.8C156.8 12.8 157.5 12.1 157.5 11.2C157.5 10.3 156.8 9.60001 155.9 9.60001Z" fill="#161616"/>
<path d="M155.9 29C155 29 154.3 29.7 154.3 30.6C154.3 31.5 155 32.2 155.9 32.2C156.8 32.2 157.5 31.5 157.5 30.6C157.5 29.7 156.8 29 155.9 29Z" fill="#161616"/>
<path d="M155.9 24.1C155 24.1 154.3 24.8 154.3 25.7C154.3 26.6 155 27.3 155.9 27.3C156.8 27.3 157.5 26.6 157.5 25.7C157.5 24.9 156.8 24.1 155.9 24.1Z" fill="#161616"/>
<path d="M160.1 2.39999C159.2 2.39999 158.5 3.09999 158.5 3.99999C158.5 4.89999 159.2 5.59999 160.1 5.59999C161 5.59999 161.7 4.89999 161.7 3.99999C161.7 3.09999 161 2.39999 160.1 2.39999Z" fill="#161616"/>
<path d="M160.1 12.1C159.2 12.1 158.5 12.8 158.5 13.7C158.5 14.6 159.2 15.3 160.1 15.3C161 15.3 161.7 14.6 161.7 13.7C161.7 12.8 161 12.1 160.1 12.1Z" fill="#161616"/>
<path d="M160.1 16.9C159.2 16.9 158.5 17.6 158.5 18.5C158.5 19.4 159.2 20.1 160.1 20.1C161 20.1 161.7 19.4 161.7 18.5C161.7 17.6 161 16.9 160.1 16.9Z" fill="#161616"/>
<path d="M160.1 7.20001C159.2 7.20001 158.5 7.90001 158.5 8.80001C158.5 9.70001 159.2 10.4 160.1 10.4C161 10.4 161.7 9.70001 161.7 8.80001C161.7 7.90001 161 7.20001 160.1 7.20001Z" fill="#161616"/>
<path d="M151.7 7.20001C150.8 7.20001 150.1 7.90001 150.1 8.80001C150.1 9.70001 150.8 10.4 151.7 10.4C152.6 10.4 153.3 9.70001 153.3 8.80001C153.3 7.90001 152.6 7.20001 151.7 7.20001Z" fill="#161616"/>
<path d="M155.9 0.600006C155.3 0.600006 154.9 1.10001 154.9 1.60001C154.9 2.20001 155.4 2.60001 155.9 2.60001C156.5 2.60001 156.9 2.10001 156.9 1.60001C156.9 1.00001 156.5 0.600006 155.9 0.600006Z" fill="#161616"/>
<path d="M151.7 12.7C151.1 12.7 150.7 13.2 150.7 13.7C150.7 14.3 151.2 14.7 151.7 14.7C152.3 14.7 152.7 14.2 152.7 13.7C152.7 13.1 152.3 12.7 151.7 12.7Z" fill="#161616"/>
<path d="M151.7 22.3C151.1 22.3 150.7 22.8 150.7 23.3C150.7 23.9 151.2 24.3 151.7 24.3C152.3 24.3 152.7 23.8 152.7 23.3C152.7 22.8 152.3 22.3 151.7 22.3Z" fill="#161616"/>
<path d="M155.9 34.4C155.3 34.4 154.9 34.9 154.9 35.4C154.9 36 155.4 36.4 155.9 36.4C156.5 36.4 156.9 35.9 156.9 35.4C156.9 34.9 156.5 34.4 155.9 34.4Z" fill="#161616"/>
<path d="M151.7 2.39999C150.8 2.39999 150.1 3.09999 150.1 3.99999C150.1 4.89999 150.8 5.59999 151.7 5.59999C152.6 5.59999 153.3 4.89999 153.3 3.99999C153.3 3.09999 152.6 2.39999 151.7 2.39999Z" fill="#161616"/>
<path d="M151.7 26.6C150.8 26.6 150.1 27.3 150.1 28.2C150.1 29.1 150.8 29.8 151.7 29.8C152.6 29.8 153.3 29.1 153.3 28.2C153.3 27.3 152.6 26.6 151.7 26.6Z" fill="#161616"/>
<path d="M151.7 34.7C152.6 34.7 153.3 34 153.3 33.1C153.3 32.2 152.6 31.5 151.7 31.5C150.8 31.5 150.1 32.2 150.1 33.1C150.1 34 150.8 34.7 151.7 34.7Z" fill="#161616"/>
<path d="M147.5 36.5C148.1 36.5 148.5 36 148.5 35.5C148.5 35 148 34.5 147.5 34.5C146.9 34.5 146.5 35 146.5 35.5C146.5 36 147 36.5 147.5 36.5Z" fill="#161616"/>
<path d="M168.5 7.79999C167.9 7.79999 167.5 8.29999 167.5 8.79999C167.5 9.39999 168 9.79999 168.5 9.79999C169.1 9.79999 169.5 9.29999 169.5 8.79999C169.5 8.29999 169 7.79999 168.5 7.79999Z" fill="#161616"/>
<path d="M164.3 31.6C164.9 31.6 165.3 31.1 165.3 30.6C165.3 30 164.8 29.6 164.3 29.6C163.7 29.6 163.3 30.1 163.3 30.6C163.3 31.2 163.7 31.6 164.3 31.6Z" fill="#161616"/>
<path d="M160.1 34C160.7 34 161.1 33.5 161.1 33C161.1 32.4 160.6 32 160.1 32C159.5 32 159.1 32.5 159.1 33C159.1 33.6 159.5 34 160.1 34Z" fill="#161616"/>
<path d="M168.5 15.3C169.4 15.3 170.1 14.6 170.1 13.7C170.1 12.8 169.4 12.1 168.5 12.1C167.6 12.1 166.9 12.8 166.9 13.7C166.8 14.6 167.6 15.3 168.5 15.3Z" fill="#161616"/>
<path d="M168.5 21.7C167.6 21.7 166.9 22.4 166.9 23.3C166.9 24.2 167.6 24.9 168.5 24.9C169.4 24.9 170.1 24.2 170.1 23.3C170.1 22.5 169.4 21.7 168.5 21.7Z" fill="#161616"/>
<path d="M168.5 16.9C167.6 16.9 166.9 17.6 166.9 18.5C166.9 19.4 167.6 20.1 168.5 20.1C169.4 20.1 170.1 19.4 170.1 18.5C170.1 17.6 169.4 16.9 168.5 16.9Z" fill="#161616"/>
<path d="M164.3 24.1C163.4 24.1 162.7 24.8 162.7 25.7C162.7 26.6 163.4 27.3 164.3 27.3C165.2 27.3 165.9 26.6 165.9 25.7C165.9 24.9 165.2 24.1 164.3 24.1Z" fill="#161616"/>
<path d="M164.3 19.3C163.4 19.3 162.7 20 162.7 20.9C162.7 21.8 163.4 22.5 164.3 22.5C165.2 22.5 165.9 21.8 165.9 20.9C165.9 20 165.2 19.3 164.3 19.3Z" fill="#161616"/>
<path d="M160.1 26.6C159.2 26.6 158.5 27.3 158.5 28.2C158.5 29.1 159.2 29.8 160.1 29.8C161 29.8 161.7 29.1 161.7 28.2C161.7 27.3 161 26.6 160.1 26.6Z" fill="#161616"/>
<path d="M164.3 4.79999C163.4 4.79999 162.7 5.49999 162.7 6.39999C162.7 7.29999 163.4 7.99999 164.3 7.99999C165.2 7.99999 165.9 7.29999 165.9 6.39999C165.9 5.49999 165.2 4.79999 164.3 4.79999Z" fill="#161616"/>
<path d="M164.3 14.5C163.4 14.5 162.7 15.2 162.7 16.1C162.7 17 163.4 17.7 164.3 17.7C165.2 17.7 165.9 17 165.9 16.1C165.9 15.2 165.2 14.5 164.3 14.5Z" fill="#161616"/>
<path d="M160.1 21.7C159.2 21.7 158.5 22.4 158.5 23.3C158.5 24.2 159.2 24.9 160.1 24.9C161 24.9 161.7 24.2 161.7 23.3C161.7 22.5 161 21.7 160.1 21.7Z" fill="#161616"/>
<path d="M164.3 9.60001C163.4 9.60001 162.7 10.3 162.7 11.2C162.7 12.1 163.4 12.8 164.3 12.8C165.2 12.8 165.9 12.1 165.9 11.2C165.9 10.3 165.2 9.60001 164.3 9.60001Z" fill="#161616"/>
<path d="M139.2 24.1C138.3 24.1 137.6 24.8 137.6 25.7C137.6 26.6 138.3 27.3 139.2 27.3C140.1 27.3 140.8 26.6 140.8 25.7C140.8 24.9 140.1 24.1 139.2 24.1Z" fill="#161616"/>
<path d="M135 36.2C134.1 36.2 133.4 36.9 133.4 37.8C133.4 38.7 134.1 39.4 135 39.4C135.9 39.4 136.6 38.7 136.6 37.8C136.6 37 135.9 36.2 135 36.2Z" fill="#161616"/>
<path d="M139.2 29C138.3 29 137.6 29.7 137.6 30.6C137.6 31.5 138.3 32.2 139.2 32.2C140.1 32.2 140.8 31.5 140.8 30.6C140.8 29.7 140.1 29 139.2 29Z" fill="#161616"/>
<path d="M147.5 29C146.6 29 145.9 29.7 145.9 30.6C145.9 31.5 146.6 32.2 147.5 32.2C148.4 32.2 149.1 31.5 149.1 30.6C149.2 29.7 148.4 29 147.5 29Z" fill="#161616"/>
<path d="M139.2 43.5C138.3 43.5 137.6 44.2 137.6 45.1C137.6 46 138.3 46.7 139.2 46.7C140.1 46.7 140.8 46 140.8 45.1C140.8 44.2 140.1 43.5 139.2 43.5Z" fill="#161616"/>
<path d="M139.2 33.8C138.3 33.8 137.6 34.5 137.6 35.4C137.6 36.3 138.3 37 139.2 37C140.1 37 140.8 36.3 140.8 35.4C140.8 34.5 140.1 33.8 139.2 33.8Z" fill="#161616"/>
<path d="M139.2 14.5C138.3 14.5 137.6 15.2 137.6 16.1C137.6 17 138.3 17.7 139.2 17.7C140.1 17.7 140.8 17 140.8 16.1C140.8 15.2 140.1 14.5 139.2 14.5Z" fill="#161616"/>
<path d="M139.2 38.7C138.3 38.7 137.6 39.4 137.6 40.3C137.6 41.2 138.3 41.9 139.2 41.9C140.1 41.9 140.8 41.2 140.8 40.3C140.8 39.4 140.1 38.7 139.2 38.7Z" fill="#161616"/>
<path d="M139.2 4.79999C138.3 4.79999 137.6 5.49999 137.6 6.39999C137.6 7.29999 138.3 7.99999 139.2 7.99999C140.1 7.99999 140.8 7.29999 140.8 6.39999C140.8 5.49999 140.1 4.79999 139.2 4.79999Z" fill="#161616"/>
<path d="M139.2 51C139.8 51 140.2 50.5 140.2 50C140.2 49.4 139.7 49 139.2 49C138.6 49 138.2 49.5 138.2 50C138.1 50.5 138.6 51 139.2 51Z" fill="#161616"/>
<path d="M135 49.2C135.9 49.2 136.6 48.5 136.6 47.6C136.6 46.7 135.9 46 135 46C134.1 46 133.4 46.7 133.4 47.6C133.3 48.4 134.1 49.2 135 49.2Z" fill="#161616"/>
<path d="M135 41.1C134.1 41.1 133.4 41.8 133.4 42.7C133.4 43.6 134.1 44.3 135 44.3C135.9 44.3 136.6 43.6 136.6 42.7C136.6 41.8 135.9 41.1 135 41.1Z" fill="#161616"/>
<path d="M139.2 9.60001C138.3 9.60001 137.6 10.3 137.6 11.2C137.6 12.1 138.3 12.8 139.2 12.8C140.1 12.8 140.8 12.1 140.8 11.2C140.8 10.3 140.1 9.60001 139.2 9.60001Z" fill="#161616"/>
<path d="M139.2 0C138.3 0 137.6 0.7 137.6 1.6C137.6 2.5 138.3 3.2 139.2 3.2C140.1 3.2 140.8 2.5 140.8 1.6C140.8 0.7 140.1 0 139.2 0Z" fill="#161616"/>
<path d="M143.3 2.39999C142.4 2.39999 141.7 3.09999 141.7 3.99999C141.7 4.89999 142.4 5.59999 143.3 5.59999C144.2 5.59999 144.9 4.89999 144.9 3.99999C145 3.09999 144.2 2.39999 143.3 2.39999Z" fill="#161616"/>
<path d="M139.2 19.3C138.3 19.3 137.6 20 137.6 20.9C137.6 21.8 138.3 22.5 139.2 22.5C140.1 22.5 140.8 21.8 140.8 20.9C140.8 20 140.1 19.3 139.2 19.3Z" fill="#161616"/>
<path d="M147.5 0C146.6 0 145.9 0.7 145.9 1.6C145.9 2.5 146.6 3.2 147.5 3.2C148.4 3.2 149.1 2.5 149.1 1.6C149.1 0.7 148.4 0 147.5 0Z" fill="#161616"/>
<path d="M147.5 4.79999C146.6 4.79999 145.9 5.49999 145.9 6.39999C145.9 7.29999 146.6 7.99999 147.5 7.99999C148.4 7.99999 149.1 7.29999 149.1 6.39999C149.2 5.49999 148.4 4.79999 147.5 4.79999Z" fill="#161616"/>
<path d="M143.3 49.2C144.2 49.2 144.9 48.5 144.9 47.6C144.9 46.7 144.2 46 143.3 46C142.4 46 141.7 46.7 141.7 47.6C141.7 48.4 142.4 49.2 143.3 49.2Z" fill="#161616"/>
<path d="M147.5 24.1C146.6 24.1 145.9 24.8 145.9 25.7C145.9 26.6 146.6 27.3 147.5 27.3C148.4 27.3 149.1 26.6 149.1 25.7C149.2 24.9 148.4 24.1 147.5 24.1Z" fill="#161616"/>
<path d="M143.3 41.1C142.4 41.1 141.7 41.8 141.7 42.7C141.7 43.6 142.4 44.3 143.3 44.3C144.2 44.3 144.9 43.6 144.9 42.7C145 41.8 144.2 41.1 143.3 41.1Z" fill="#161616"/>
<path d="M147.5 9.60001C146.6 9.60001 145.9 10.3 145.9 11.2C145.9 12.1 146.6 12.8 147.5 12.8C148.4 12.8 149.1 12.1 149.1 11.2C149.1 10.3 148.4 9.60001 147.5 9.60001Z" fill="#161616"/>
<path d="M143.3 26.6C142.4 26.6 141.7 27.3 141.7 28.2C141.7 29.1 142.4 29.8 143.3 29.8C144.2 29.8 144.9 29.1 144.9 28.2C145 27.3 144.2 26.6 143.3 26.6Z" fill="#161616"/>
<path d="M143.3 21.7C142.4 21.7 141.7 22.4 141.7 23.3C141.7 24.2 142.4 24.9 143.3 24.9C144.2 24.9 144.9 24.2 144.9 23.3C145 22.5 144.2 21.7 143.3 21.7Z" fill="#161616"/>
<path d="M143.3 16.9C142.4 16.9 141.7 17.6 141.7 18.5C141.7 19.4 142.4 20.1 143.3 20.1C144.2 20.1 144.9 19.4 144.9 18.5C145 17.6 144.2 16.9 143.3 16.9Z" fill="#161616"/>
<path d="M143.3 12.1C142.4 12.1 141.7 12.8 141.7 13.7C141.7 14.6 142.4 15.3 143.3 15.3C144.2 15.3 144.9 14.6 144.9 13.7C145 12.8 144.2 12.1 143.3 12.1Z" fill="#161616"/>
<path d="M143.3 7.20001C142.4 7.20001 141.7 7.90001 141.7 8.80001C141.7 9.70001 142.4 10.4 143.3 10.4C144.2 10.4 144.9 9.70001 144.9 8.80001C144.9 7.90001 144.2 7.20001 143.3 7.20001Z" fill="#161616"/>
<path d="M143.3 31.4C142.4 31.4 141.7 32.1 141.7 33C141.7 33.9 142.4 34.6 143.3 34.6C144.2 34.6 144.9 33.9 144.9 33C144.9 32.1 144.2 31.4 143.3 31.4Z" fill="#161616"/>
<path d="M143.3 36.2C142.4 36.2 141.7 36.9 141.7 37.8C141.7 38.7 142.4 39.4 143.3 39.4C144.2 39.4 144.9 38.7 144.9 37.8C145 37 144.2 36.2 143.3 36.2Z" fill="#161616"/>
<path d="M76.3 3C75.7 3 75.3 3.5 75.3 4C75.3 4.6 75.8 5 76.3 5C76.9 5 77.3 4.5 77.3 4C77.3 3.5 76.9 3 76.3 3Z" fill="#161616"/>
<path d="M30.3 29C29.4 29 28.7 29.7 28.7 30.6C28.7 31.5 29.4 32.2 30.3 32.2C31.2 32.2 31.9 31.5 31.9 30.6C31.9 29.7 31.2 29 30.3 29Z" fill="#161616"/>
<path d="M30.3 24.1C29.4 24.1 28.7 24.8 28.7 25.7C28.7 26.6 29.4 27.3 30.3 27.3C31.2 27.3 31.9 26.6 31.9 25.7C31.9 24.8 31.2 24.1 30.3 24.1Z" fill="#161616"/>
<path d="M30.3 15.1C29.7 15.1 29.3 15.6 29.3 16.1C29.3 16.7 29.8 17.1 30.3 17.1C30.9 17.1 31.3 16.6 31.3 16.1C31.3 15.5 30.8 15.1 30.3 15.1Z" fill="#161616"/>
<path d="M30.3 19.3C29.4 19.3 28.7 20 28.7 20.9C28.7 21.8 29.4 22.5 30.3 22.5C31.2 22.5 31.9 21.8 31.9 20.9C31.9 20 31.2 19.3 30.3 19.3Z" fill="#161616"/>
<path d="M34.5 34C35.1 34 35.5 33.5 35.5 33C35.5 32.4 35 32 34.5 32C33.9 32 33.5 32.5 33.5 33C33.4 33.6 33.9 34 34.5 34Z" fill="#161616"/>
<path d="M30.3 33.8C29.4 33.8 28.7 34.5 28.7 35.4C28.7 36.3 29.4 37 30.3 37C31.2 37 31.9 36.3 31.9 35.4C31.9 34.5 31.2 33.8 30.3 33.8Z" fill="#161616"/>
<path d="M30.3 41.9C31.2 41.9 31.9 41.2 31.9 40.3C31.9 39.4 31.2 38.7 30.3 38.7C29.4 38.7 28.7 39.4 28.7 40.3C28.6 41.2 29.4 41.9 30.3 41.9Z" fill="#161616"/>
<path d="M26.1 49.2C27 49.2 27.7 48.5 27.7 47.6C27.7 46.7 27 46 26.1 46C25.2 46 24.5 46.7 24.5 47.6C24.4 48.4 25.2 49.2 26.1 49.2Z" fill="#161616"/>
<path d="M26.1 31.4C25.2 31.4 24.5 32.1 24.5 33C24.5 33.9 25.2 34.6 26.1 34.6C27 34.6 27.7 33.9 27.7 33C27.7 32.1 27 31.4 26.1 31.4Z" fill="#161616"/>
<path d="M21.9 38.7C21 38.7 20.3 39.4 20.3 40.3C20.3 41.2 21 41.9 21.9 41.9C22.8 41.9 23.5 41.2 23.5 40.3C23.5 39.4 22.8 38.7 21.9 38.7Z" fill="#161616"/>
<path d="M21.9 43.5C21 43.5 20.3 44.2 20.3 45.1C20.3 46 21 46.7 21.9 46.7C22.8 46.7 23.5 46 23.5 45.1C23.5 44.2 22.8 43.5 21.9 43.5Z" fill="#161616"/>
<path d="M26.1 26.6C25.2 26.6 24.5 27.3 24.5 28.2C24.5 29.1 25.2 29.8 26.1 29.8C27 29.8 27.7 29.1 27.7 28.2C27.7 27.3 27 26.6 26.1 26.6Z" fill="#161616"/>
<path d="M26.1 41.1C25.2 41.1 24.5 41.8 24.5 42.7C24.5 43.6 25.2 44.3 26.1 44.3C27 44.3 27.7 43.6 27.7 42.7C27.7 41.8 27 41.1 26.1 41.1Z" fill="#161616"/>
<path d="M26.1 36.2C25.2 36.2 24.5 36.9 24.5 37.8C24.5 38.7 25.2 39.4 26.1 39.4C27 39.4 27.7 38.7 27.7 37.8C27.7 37 27 36.2 26.1 36.2Z" fill="#161616"/>
<path d="M38.6 27.4C39.5 27.4 40.2 26.7 40.2 25.8C40.2 24.9 39.5 24.2 38.6 24.2C37.7 24.2 37 24.9 37 25.8C37 26.7 37.7 27.4 38.6 27.4Z" fill="#161616"/>
<path d="M38.6 19.3C37.7 19.3 37 20 37 20.9C37 21.8 37.7 22.5 38.6 22.5C39.5 22.5 40.2 21.8 40.2 20.9C40.3 20 39.5 19.3 38.6 19.3Z" fill="#161616"/>
<path d="M38.6 14.5C37.7 14.5 37 15.2 37 16.1C37 17 37.7 17.7 38.6 17.7C39.5 17.7 40.2 17 40.2 16.1C40.3 15.2 39.5 14.5 38.6 14.5Z" fill="#161616"/>
<path d="M38.6 9.60001C37.7 9.60001 37 10.3 37 11.2C37 12.1 37.7 12.8 38.6 12.8C39.5 12.8 40.2 12.1 40.2 11.2C40.2 10.3 39.5 9.60001 38.6 9.60001Z" fill="#161616"/>
<path d="M42.8 34C43.4 34 43.8 33.5 43.8 33C43.8 32.4 43.3 32 42.8 32C42.2 32 41.8 32.5 41.8 33C41.8 33.6 42.3 34 42.8 34Z" fill="#161616"/>
<path d="M42.8 7.20001C41.9 7.20001 41.2 7.90001 41.2 8.80001C41.2 9.70001 41.9 10.4 42.8 10.4C43.7 10.4 44.4 9.70001 44.4 8.80001C44.4 7.90001 43.7 7.20001 42.8 7.20001Z" fill="#161616"/>
<path d="M34.5 7.20001C33.6 7.20001 32.9 7.90001 32.9 8.80001C32.9 9.70001 33.6 10.4 34.5 10.4C35.4 10.4 36.1 9.70001 36.1 8.80001C36.1 7.90001 35.4 7.20001 34.5 7.20001Z" fill="#161616"/>
<path d="M38.6 4.79999C37.7 4.79999 37 5.49999 37 6.39999C37 7.29999 37.7 7.99999 38.6 7.99999C39.5 7.99999 40.2 7.29999 40.2 6.39999C40.3 5.49999 39.5 4.79999 38.6 4.79999Z" fill="#161616"/>
<path d="M34.5 12.1C33.6 12.1 32.9 12.8 32.9 13.7C32.9 14.6 33.6 15.3 34.5 15.3C35.4 15.3 36.1 14.6 36.1 13.7C36.1 12.8 35.4 12.1 34.5 12.1Z" fill="#161616"/>
<path d="M34.5 21.7C33.6 21.7 32.9 22.4 32.9 23.3C32.9 24.2 33.6 24.9 34.5 24.9C35.4 24.9 36.1 24.2 36.1 23.3C36.1 22.5 35.4 21.7 34.5 21.7Z" fill="#161616"/>
<path d="M34.5 16.9C33.6 16.9 32.9 17.6 32.9 18.5C32.9 19.4 33.6 20.1 34.5 20.1C35.4 20.1 36.1 19.4 36.1 18.5C36.1 17.6 35.4 16.9 34.5 16.9Z" fill="#161616"/>
<path d="M34.5 26.6C33.6 26.6 32.9 27.3 32.9 28.2C32.9 29.1 33.6 29.8 34.5 29.8C35.4 29.8 36.1 29.1 36.1 28.2C36.1 27.3 35.4 26.6 34.5 26.6Z" fill="#161616"/>
<path d="M38.6 0.600006C38 0.600006 37.6 1.10001 37.6 1.60001C37.6 2.20001 38.1 2.60001 38.6 2.60001C39.2 2.60001 39.6 2.10001 39.6 1.60001C39.7 1.00001 39.2 0.600006 38.6 0.600006Z" fill="#161616"/>
<path d="M34.5 3C33.9 3 33.5 3.5 33.5 4C33.5 4.6 34 5 34.5 5C35.1 5 35.5 4.5 35.5 4C35.5 3.5 35 3 34.5 3Z" fill="#161616"/>
<path d="M42.8 3C42.2 3 41.8 3.5 41.8 4C41.8 4.6 42.3 5 42.8 5C43.4 5 43.8 4.5 43.8 4C43.8 3.5 43.4 3 42.8 3Z" fill="#161616"/>
<path d="M9.39999 10.5C10.3 10.5 11 9.79999 11 8.89999C11 7.99999 10.3 7.29999 9.39999 7.29999C8.49999 7.29999 7.79999 7.99999 7.79999 8.89999C7.79999 9.69999 8.49999 10.5 9.39999 10.5Z" fill="#161616"/>
<path d="M13.5 4.79999C12.6 4.79999 11.9 5.49999 11.9 6.39999C11.9 7.29999 12.6 7.99999 13.5 7.99999C14.4 7.99999 15.1 7.29999 15.1 6.39999C15.1 5.49999 14.4 4.79999 13.5 4.79999Z" fill="#161616"/>
<path d="M13.5 9.60001C12.6 9.60001 11.9 10.3 11.9 11.2C11.9 12.1 12.6 12.8 13.5 12.8C14.4 12.8 15.1 12.1 15.1 11.2C15.1 10.3 14.4 9.60001 13.5 9.60001Z" fill="#161616"/>
<path d="M13.5 19.3C12.6 19.3 11.9 20 11.9 20.9C11.9 21.8 12.6 22.5 13.5 22.5C14.4 22.5 15.1 21.8 15.1 20.9C15.1 20 14.4 19.3 13.5 19.3Z" fill="#161616"/>
<path d="M13.5 14.5C12.6 14.5 11.9 15.2 11.9 16.1C11.9 17 12.6 17.7 13.5 17.7C14.4 17.7 15.1 17 15.1 16.1C15.1 15.2 14.4 14.5 13.5 14.5Z" fill="#161616"/>
<path d="M9.39999 20.2C10.3 20.2 11 19.5 11 18.6C11 17.7 10.3 17 9.39999 17C8.49999 17 7.79999 17.7 7.79999 18.6C7.79999 19.4 8.49999 20.2 9.39999 20.2Z" fill="#161616"/>
<path d="M42.8 12.1C41.9 12.1 41.2 12.8 41.2 13.7C41.2 14.6 41.9 15.3 42.8 15.3C43.7 15.3 44.4 14.6 44.4 13.7C44.5 12.8 43.7 12.1 42.8 12.1Z" fill="#161616"/>
<path d="M9.39999 15.3C10.3 15.3 11 14.6 11 13.7C11 12.8 10.3 12.1 9.39999 12.1C8.49999 12.1 7.79999 12.8 7.79999 13.7C7.79999 14.6 8.49999 15.3 9.39999 15.3Z" fill="#161616"/>
<path d="M13.5 0C12.6 0 11.9 0.7 11.9 1.6C11.9 2.5 12.6 3.2 13.5 3.2C14.4 3.2 15.1 2.5 15.1 1.6C15.1 0.7 14.4 0 13.5 0Z" fill="#161616"/>
<path d="M5.19998 4.79999C4.29998 4.79999 3.59998 5.49999 3.59998 6.39999C3.59998 7.29999 4.29998 7.99999 5.19998 7.99999C6.09998 7.99999 6.79998 7.29999 6.79998 6.39999C6.89998 5.49999 6.09998 4.79999 5.19998 4.79999Z" fill="#161616"/>
<path d="M5.19998 0C4.29998 0 3.59998 0.7 3.59998 1.6C3.59998 2.5 4.29998 3.2 5.19998 3.2C6.09998 3.2 6.79998 2.5 6.79998 1.6C6.79998 0.7 6.09998 0 5.19998 0Z" fill="#161616"/>
<path d="M1 3C0.4 3 0 3.5 0 4C0 4.6 0.5 5 1 5C1.6 5 2 4.5 2 4C2.1 3.5 1.6 3 1 3Z" fill="#161616"/>
<path d="M5.19998 9.60001C4.29998 9.60001 3.59998 10.3 3.59998 11.2C3.59998 12.1 4.29998 12.8 5.19998 12.8C6.09998 12.8 6.79998 12.1 6.79998 11.2C6.79998 10.3 6.09998 9.60001 5.19998 9.60001Z" fill="#161616"/>
<path d="M9.39999 2.39999C8.49999 2.39999 7.79999 3.09999 7.79999 3.99999C7.79999 4.89999 8.49999 5.59999 9.39999 5.59999C10.3 5.59999 11 4.89999 11 3.99999C11 3.09999 10.3 2.39999 9.39999 2.39999Z" fill="#161616"/>
<path d="M13.5 31.6C14.1 31.6 14.5 31.1 14.5 30.6C14.5 30 14 29.6 13.5 29.6C12.9 29.6 12.5 30.1 12.5 30.6C12.5 31.2 13 31.6 13.5 31.6Z" fill="#161616"/>
<path d="M17.7 7.79999C17.1 7.79999 16.7 8.29999 16.7 8.79999C16.7 9.39999 17.2 9.79999 17.7 9.79999C18.3 9.79999 18.7 9.29999 18.7 8.79999C18.7 8.29999 18.3 7.79999 17.7 7.79999Z" fill="#161616"/>
<path d="M21.9 51C22.5 51 22.9 50.5 22.9 50C22.9 49.4 22.4 49 21.9 49C21.3 49 20.9 49.5 20.9 50C20.9 50.5 21.3 51 21.9 51Z" fill="#161616"/>
<path d="M21.9 19.9C21.3 19.9 20.9 20.4 20.9 20.9C20.9 21.5 21.4 21.9 21.9 21.9C22.5 21.9 22.9 21.4 22.9 20.9C22.9 20.4 22.4 19.9 21.9 19.9Z" fill="#161616"/>
<path d="M21.9 15.1C21.3 15.1 20.9 15.6 20.9 16.1C20.9 16.7 21.4 17.1 21.9 17.1C22.5 17.1 22.9 16.6 22.9 16.1C22.9 15.5 22.4 15.1 21.9 15.1Z" fill="#161616"/>
<path d="M55.4 15.1C54.8 15.1 54.4 15.6 54.4 16.1C54.4 16.7 54.9 17.1 55.4 17.1C56 17.1 56.4 16.6 56.4 16.1C56.4 15.5 56 15.1 55.4 15.1Z" fill="#161616"/>
<path d="M26.1 22.3C25.5 22.3 25.1 22.8 25.1 23.3C25.1 23.9 25.6 24.3 26.1 24.3C26.7 24.3 27.1 23.8 27.1 23.3C27.1 22.8 26.6 22.3 26.1 22.3Z" fill="#161616"/>
<path d="M51.2 22.3C50.6 22.3 50.2 22.8 50.2 23.3C50.2 23.9 50.7 24.3 51.2 24.3C51.8 24.3 52.2 23.8 52.2 23.3C52.2 22.8 51.8 22.3 51.2 22.3Z" fill="#161616"/>
<path d="M17.7 31.4C16.8 31.4 16.1 32.1 16.1 33C16.1 33.9 16.8 34.6 17.7 34.6C18.6 34.6 19.3 33.9 19.3 33C19.3 32.1 18.6 31.4 17.7 31.4Z" fill="#161616"/>
<path d="M17.7 36.2C16.8 36.2 16.1 36.9 16.1 37.8C16.1 38.7 16.8 39.4 17.7 39.4C18.6 39.4 19.3 38.7 19.3 37.8C19.3 37 18.6 36.2 17.7 36.2Z" fill="#161616"/>
<path d="M13.5 24.1C12.6 24.1 11.9 24.8 11.9 25.7C11.9 26.6 12.6 27.3 13.5 27.3C14.4 27.3 15.1 26.6 15.1 25.7C15.1 24.8 14.4 24.1 13.5 24.1Z" fill="#161616"/>
<path d="M21.9 24.1C21 24.1 20.3 24.8 20.3 25.7C20.3 26.6 21 27.3 21.9 27.3C22.8 27.3 23.5 26.6 23.5 25.7C23.5 24.8 22.8 24.1 21.9 24.1Z" fill="#161616"/>
<path d="M21.9 29C21 29 20.3 29.7 20.3 30.6C20.3 31.5 21 32.2 21.9 32.2C22.8 32.2 23.5 31.5 23.5 30.6C23.5 29.7 22.8 29 21.9 29Z" fill="#161616"/>
<path d="M21.9 33.8C21 33.8 20.3 34.5 20.3 35.4C20.3 36.3 21 37 21.9 37C22.8 37 23.5 36.3 23.5 35.4C23.5 34.5 22.8 33.8 21.9 33.8Z" fill="#161616"/>
<path d="M17.7 12.1C16.8 12.1 16.1 12.8 16.1 13.7C16.1 14.6 16.8 15.3 17.7 15.3C18.6 15.3 19.3 14.6 19.3 13.7C19.3 12.8 18.6 12.1 17.7 12.1Z" fill="#161616"/>
<path d="M17.7 26.6C16.8 26.6 16.1 27.3 16.1 28.2C16.1 29.1 16.8 29.8 17.7 29.8C18.6 29.8 19.3 29.1 19.3 28.2C19.3 27.3 18.6 26.6 17.7 26.6Z" fill="#161616"/>
<path d="M17.7 43.7C18.3 43.7 18.7 43.2 18.7 42.7C18.7 42.1 18.2 41.7 17.7 41.7C17.1 41.7 16.7 42.2 16.7 42.7C16.7 43.3 17.1 43.7 17.7 43.7Z" fill="#161616"/>
<path d="M17.7 21.7C16.8 21.7 16.1 22.4 16.1 23.3C16.1 24.2 16.8 24.9 17.7 24.9C18.6 24.9 19.3 24.2 19.3 23.3C19.3 22.5 18.6 21.7 17.7 21.7Z" fill="#161616"/>
<path d="M17.7 16.9C16.8 16.9 16.1 17.6 16.1 18.5C16.1 19.4 16.8 20.1 17.7 20.1C18.6 20.1 19.3 19.4 19.3 18.5C19.3 17.6 18.6 16.9 17.7 16.9Z" fill="#161616"/>
<path d="M59.6 43.7C60.2 43.7 60.6 43.2 60.6 42.7C60.6 42.1 60.1 41.7 59.6 41.7C59.1 41.7 58.6 42.2 58.6 42.7C58.6 43.3 59 43.7 59.6 43.7Z" fill="#161616"/>
<path d="M68 12.1C67.1 12.1 66.4 12.8 66.4 13.7C66.4 14.6 67.1 15.3 68 15.3C68.9 15.3 69.6 14.6 69.6 13.7C69.6 12.8 68.9 12.1 68 12.1Z" fill="#161616"/>
<path d="M68 7.20001C67.1 7.20001 66.4 7.90001 66.4 8.80001C66.4 9.70001 67.1 10.4 68 10.4C68.9 10.4 69.6 9.70001 69.6 8.80001C69.6 7.90001 68.9 7.20001 68 7.20001Z" fill="#161616"/>
<path d="M68 20.2C68.9 20.2 69.6 19.5 69.6 18.6C69.6 17.7 68.9 17 68 17C67.1 17 66.4 17.7 66.4 18.6C66.3 19.4 67.1 20.2 68 20.2Z" fill="#161616"/>
<path d="M72.2 12.9C73.1 12.9 73.8 12.2 73.8 11.3C73.8 10.4 73.1 9.70001 72.2 9.70001C71.3 9.70001 70.6 10.4 70.6 11.3C70.6 12.2 71.3 12.9 72.2 12.9Z" fill="#161616"/>
<path d="M68 2.39999C67.1 2.39999 66.4 3.09999 66.4 3.99999C66.4 4.89999 67.1 5.59999 68 5.59999C68.9 5.59999 69.6 4.89999 69.6 3.99999C69.6 3.09999 68.9 2.39999 68 2.39999Z" fill="#161616"/>
<path d="M72.2 4.79999C71.3 4.79999 70.6 5.49999 70.6 6.39999C70.6 7.29999 71.3 7.99999 72.2 7.99999C73.1 7.99999 73.8 7.29999 73.8 6.39999C73.8 5.49999 73.1 4.79999 72.2 4.79999Z" fill="#161616"/>
<path d="M72.2 0C71.3 0 70.6 0.7 70.6 1.6C70.6 2.5 71.3 3.2 72.2 3.2C73.1 3.2 73.8 2.5 73.8 1.6C73.8 0.7 73.1 0 72.2 0Z" fill="#161616"/>
<path d="M63.8 19.3C62.9 19.3 62.2 20 62.2 20.9C62.2 21.8 62.9 22.5 63.8 22.5C64.7 22.5 65.4 21.8 65.4 20.9C65.4 20 64.7 19.3 63.8 19.3Z" fill="#161616"/>
<path d="M63.8 9.60001C62.9 9.60001 62.2 10.3 62.2 11.2C62.2 12.1 62.9 12.8 63.8 12.8C64.7 12.8 65.4 12.1 65.4 11.2C65.4 10.3 64.7 9.60001 63.8 9.60001Z" fill="#161616"/>
<path d="M63.8 4.79999C62.9 4.79999 62.2 5.49999 62.2 6.39999C62.2 7.29999 62.9 7.99999 63.8 7.99999C64.7 7.99999 65.4 7.29999 65.4 6.39999C65.4 5.49999 64.7 4.79999 63.8 4.79999Z" fill="#161616"/>
<path d="M63.8 0C62.9 0 62.2 0.7 62.2 1.6C62.2 2.5 62.9 3.2 63.8 3.2C64.7 3.2 65.4 2.5 65.4 1.6C65.4 0.7 64.7 0 63.8 0Z" fill="#161616"/>
<path d="M87.1 51C87.7 51 88.1 50.5 88.1 50C88.1 49.4 87.6 49 87.1 49C86.5 49 86.1 49.5 86.1 50C86 50.5 86.5 51 87.1 51Z" fill="#161616"/>
<path d="M63.8 31.6C64.4 31.6 64.8 31.1 64.8 30.6C64.8 30 64.3 29.6 63.8 29.6C63.2 29.6 62.8 30.1 62.8 30.6C62.8 31.2 63.2 31.6 63.8 31.6Z" fill="#161616"/>
<path d="M63.8 24.1C62.9 24.1 62.2 24.8 62.2 25.7C62.2 26.6 62.9 27.3 63.8 27.3C64.7 27.3 65.4 26.6 65.4 25.7C65.4 24.8 64.7 24.1 63.8 24.1Z" fill="#161616"/>
<path d="M63.8 14.5C62.9 14.5 62.2 15.2 62.2 16.1C62.2 17 62.9 17.7 63.8 17.7C64.7 17.7 65.4 17 65.4 16.1C65.4 15.2 64.7 14.5 63.8 14.5Z" fill="#161616"/>
<path d="M87.1 33.8C86.2 33.8 85.5 34.5 85.5 35.4C85.5 36.3 86.2 37 87.1 37C88 37 88.7 36.3 88.7 35.4C88.7 34.5 88 33.8 87.1 33.8Z" fill="#161616"/>
<path d="M87.1 43.5C86.2 43.5 85.5 44.2 85.5 45.1C85.5 46 86.2 46.7 87.1 46.7C88 46.7 88.7 46 88.7 45.1C88.7 44.2 88 43.5 87.1 43.5Z" fill="#161616"/>
<path d="M87.1 38.7C86.2 38.7 85.5 39.4 85.5 40.3C85.5 41.2 86.2 41.9 87.1 41.9C88 41.9 88.7 41.2 88.7 40.3C88.7 39.4 88 38.7 87.1 38.7Z" fill="#161616"/>
<path d="M91.2 2.39999C90.3 2.39999 89.6 3.09999 89.6 3.99999C89.6 4.89999 90.3 5.59999 91.2 5.59999C92.1 5.59999 92.8 4.89999 92.8 3.99999C92.9 3.09999 92.1 2.39999 91.2 2.39999Z" fill="#161616"/>
<path d="M91.2 7.20001C90.3 7.20001 89.6 7.90001 89.6 8.80001C89.6 9.70001 90.3 10.4 91.2 10.4C92.1 10.4 92.8 9.70001 92.8 8.80001C92.8 7.90001 92.1 7.20001 91.2 7.20001Z" fill="#161616"/>
<path d="M91.2 12.1C90.3 12.1 89.6 12.8 89.6 13.7C89.6 14.6 90.3 15.3 91.2 15.3C92.1 15.3 92.8 14.6 92.8 13.7C92.9 12.8 92.1 12.1 91.2 12.1Z" fill="#161616"/>
<path d="M87.1 19.3C86.2 19.3 85.5 20 85.5 20.9C85.5 21.8 86.2 22.5 87.1 22.5C88 22.5 88.7 21.8 88.7 20.9C88.7 20 88 19.3 87.1 19.3Z" fill="#161616"/>
<path d="M87.1 29C86.2 29 85.5 29.7 85.5 30.6C85.5 31.5 86.2 32.2 87.1 32.2C88 32.2 88.7 31.5 88.7 30.6C88.7 29.7 88 29 87.1 29Z" fill="#161616"/>
<path d="M87.1 14.5C86.2 14.5 85.5 15.2 85.5 16.1C85.5 17 86.2 17.7 87.1 17.7C88 17.7 88.7 17 88.7 16.1C88.7 15.2 88 14.5 87.1 14.5Z" fill="#161616"/>
<path d="M87.1 4.79999C86.2 4.79999 85.5 5.49999 85.5 6.39999C85.5 7.29999 86.2 7.99999 87.1 7.99999C88 7.99999 88.7 7.29999 88.7 6.39999C88.7 5.49999 88 4.79999 87.1 4.79999Z" fill="#161616"/>
<path d="M87.1 9.60001C86.2 9.60001 85.5 10.3 85.5 11.2C85.5 12.1 86.2 12.8 87.1 12.8C88 12.8 88.7 12.1 88.7 11.2C88.7 10.3 88 9.60001 87.1 9.60001Z" fill="#161616"/>
<path d="M87.1 0C86.2 0 85.5 0.7 85.5 1.6C85.5 2.5 86.2 3.2 87.1 3.2C88 3.2 88.7 2.5 88.7 1.6C88.7 0.7 88 0 87.1 0Z" fill="#161616"/>
<path d="M87.1 24.1C86.2 24.1 85.5 24.8 85.5 25.7C85.5 26.6 86.2 27.3 87.1 27.3C88 27.3 88.7 26.6 88.7 25.7C88.7 24.9 88 24.1 87.1 24.1Z" fill="#161616"/>
<path d="M42.8 16.9C41.9 16.9 41.2 17.6 41.2 18.5C41.2 19.4 41.9 20.1 42.8 20.1C43.7 20.1 44.4 19.4 44.4 18.5C44.5 17.6 43.7 16.9 42.8 16.9Z" fill="#161616"/>
<path d="M51.2 26.6C50.3 26.6 49.6 27.3 49.6 28.2C49.6 29.1 50.3 29.8 51.2 29.8C52.1 29.8 52.8 29.1 52.8 28.2C52.8 27.3 52.1 26.6 51.2 26.6Z" fill="#161616"/>
<path d="M47 33.8C46.1 33.8 45.4 34.5 45.4 35.4C45.4 36.3 46.1 37 47 37C47.9 37 48.6 36.3 48.6 35.4C48.7 34.5 47.9 33.8 47 33.8Z" fill="#161616"/>
<path d="M55.4 51C56 51 56.4 50.5 56.4 50C56.4 49.4 55.9 49 55.4 49C54.8 49 54.4 49.5 54.4 50C54.4 50.5 54.8 51 55.4 51Z" fill="#161616"/>
<path d="M51.2 31.4C50.3 31.4 49.6 32.1 49.6 33C49.6 33.9 50.3 34.6 51.2 34.6C52.1 34.6 52.8 33.9 52.8 33C52.8 32.1 52.1 31.4 51.2 31.4Z" fill="#161616"/>
<path d="M51.2 49.2C52.1 49.2 52.8 48.5 52.8 47.6C52.8 46.7 52.1 46 51.2 46C50.3 46 49.6 46.7 49.6 47.6C49.6 48.4 50.3 49.2 51.2 49.2Z" fill="#161616"/>
<path d="M51.2 36.2C50.3 36.2 49.6 36.9 49.6 37.8C49.6 38.7 50.3 39.4 51.2 39.4C52.1 39.4 52.8 38.7 52.8 37.8C52.8 37 52.1 36.2 51.2 36.2Z" fill="#161616"/>
<path d="M51.2 41.1C50.3 41.1 49.6 41.8 49.6 42.7C49.6 43.6 50.3 44.3 51.2 44.3C52.1 44.3 52.8 43.6 52.8 42.7C52.8 41.8 52.1 41.1 51.2 41.1Z" fill="#161616"/>
<path d="M47 41.9C47.9 41.9 48.6 41.2 48.6 40.3C48.6 39.4 47.9 38.7 47 38.7C46.1 38.7 45.4 39.4 45.4 40.3C45.4 41.2 46.1 41.9 47 41.9Z" fill="#161616"/>
<path d="M47 15.1C46.4 15.1 46 15.6 46 16.1C46 16.7 46.5 17.1 47 17.1C47.6 17.1 48 16.6 48 16.1C48 15.5 47.6 15.1 47 15.1Z" fill="#161616"/>
<path d="M42.8 26.6C41.9 26.6 41.2 27.3 41.2 28.2C41.2 29.1 41.9 29.8 42.8 29.8C43.7 29.8 44.4 29.1 44.4 28.2C44.5 27.3 43.7 26.6 42.8 26.6Z" fill="#161616"/>
<path d="M42.8 21.7C41.9 21.7 41.2 22.4 41.2 23.3C41.2 24.2 41.9 24.9 42.8 24.9C43.7 24.9 44.4 24.2 44.4 23.3C44.5 22.5 43.7 21.7 42.8 21.7Z" fill="#161616"/>
<path d="M47 29C46.1 29 45.4 29.7 45.4 30.6C45.4 31.5 46.1 32.2 47 32.2C47.9 32.2 48.6 31.5 48.6 30.6C48.7 29.7 47.9 29 47 29Z" fill="#161616"/>
<path d="M47 19.3C46.1 19.3 45.4 20 45.4 20.9C45.4 21.8 46.1 22.5 47 22.5C47.9 22.5 48.6 21.8 48.6 20.9C48.7 20 47.9 19.3 47 19.3Z" fill="#161616"/>
<path d="M47 24.1C46.1 24.1 45.4 24.8 45.4 25.7C45.4 26.6 46.1 27.3 47 27.3C47.9 27.3 48.6 26.6 48.6 25.7C48.6 24.8 47.9 24.1 47 24.1Z" fill="#161616"/>
<path d="M59.6 21.7C58.7 21.7 58 22.4 58 23.3C58 24.2 58.7 24.9 59.6 24.9C60.5 24.9 61.2 24.2 61.2 23.3C61.2 22.5 60.5 21.7 59.6 21.7Z" fill="#161616"/>
<path d="M59.6 16.9C58.7 16.9 58 17.6 58 18.5C58 19.4 58.7 20.1 59.6 20.1C60.5 20.1 61.2 19.4 61.2 18.5C61.2 17.6 60.5 16.9 59.6 16.9Z" fill="#161616"/>
<path d="M59.6 36.2C58.7 36.2 58 36.9 58 37.8C58 38.7 58.7 39.4 59.6 39.4C60.5 39.4 61.2 38.7 61.2 37.8C61.2 37 60.5 36.2 59.6 36.2Z" fill="#161616"/>
<path d="M55.4 19.9C54.8 19.9 54.4 20.4 54.4 20.9C54.4 21.5 54.9 21.9 55.4 21.9C56 21.9 56.4 21.4 56.4 20.9C56.4 20.4 56 19.9 55.4 19.9Z" fill="#161616"/>
<path d="M59.6 31.4C58.7 31.4 58 32.1 58 33C58 33.9 58.7 34.6 59.6 34.6C60.5 34.6 61.2 33.9 61.2 33C61.2 32.1 60.5 31.4 59.6 31.4Z" fill="#161616"/>
<path d="M59.6 26.6C58.7 26.6 58 27.3 58 28.2C58 29.1 58.7 29.8 59.6 29.8C60.5 29.8 61.2 29.1 61.2 28.2C61.2 27.3 60.5 26.6 59.6 26.6Z" fill="#161616"/>
<path d="M59.6 7.79999C59 7.79999 58.6 8.29999 58.6 8.79999C58.6 9.39999 59.1 9.79999 59.6 9.79999C60.1 9.79999 60.6 9.29999 60.6 8.79999C60.6 8.29999 60.1 7.79999 59.6 7.79999Z" fill="#161616"/>
<path d="M59.6 12.1C58.7 12.1 58 12.8 58 13.7C58 14.6 58.7 15.3 59.6 15.3C60.5 15.3 61.2 14.6 61.2 13.7C61.2 12.8 60.5 12.1 59.6 12.1Z" fill="#161616"/>
<path d="M55.4 29C54.5 29 53.8 29.7 53.8 30.6C53.8 31.5 54.5 32.2 55.4 32.2C56.3 32.2 57 31.5 57 30.6C57 29.7 56.3 29 55.4 29Z" fill="#161616"/>
<path d="M55.4 24.1C54.5 24.1 53.8 24.8 53.8 25.7C53.8 26.6 54.5 27.3 55.4 27.3C56.3 27.3 57 26.6 57 25.7C57 24.8 56.3 24.1 55.4 24.1Z" fill="#161616"/>
<path d="M55.4 33.8C54.5 33.8 53.8 34.5 53.8 35.4C53.8 36.3 54.5 37 55.4 37C56.3 37 57 36.3 57 35.4C57 34.5 56.3 33.8 55.4 33.8Z" fill="#161616"/>
<path d="M91.2 16.9C90.3 16.9 89.6 17.6 89.6 18.5C89.6 19.4 90.3 20.1 91.2 20.1C92.1 20.1 92.8 19.4 92.8 18.5C92.9 17.6 92.1 16.9 91.2 16.9Z" fill="#161616"/>
<path d="M55.4 38.7C54.5 38.7 53.8 39.4 53.8 40.3C53.8 41.2 54.5 41.9 55.4 41.9C56.3 41.9 57 41.2 57 40.3C57 39.4 56.3 38.7 55.4 38.7Z" fill="#161616"/>
<path d="M55.4 43.5C54.5 43.5 53.8 44.2 53.8 45.1C53.8 46 54.5 46.7 55.4 46.7C56.3 46.7 57 46 57 45.1C57 44.2 56.3 43.5 55.4 43.5Z" fill="#161616"/>
</svg>
