<svg width="177" height="13" viewBox="0 0 177 13" fill="none" xmlns="http://www.w3.org/2000/svg">
<g clip-path="url(#clip0_59_277)">
<path d="M176.12 9.76001V12.03H152.76V0.140015H176.05V2.33001H155.47C155.42 3.16001 155.38 3.87001 155.33 4.85001H176.1V7.25001H155.48V9.76001H176.12Z" fill="#161616"/>
<path d="M77.61 12.06V9.82002C79.99 9.82002 82.27 9.82002 84.55 9.82002C88.13 9.82002 91.71 9.82002 95.3 9.82002C96.23 9.82002 97.26 10.05 97.23 8.51002C97.2 6.95002 96.11 7.28002 95.22 7.28002C90.49 7.27002 85.76 7.28002 81.03 7.28002C78.01 7.28002 77.13 6.46002 77.12 3.71002C77.12 0.870018 77.96 0.0300182 80.92 0.0300182C86.46 0.0200182 92 0.0300182 97.54 0.0300182C98.13 0.0300182 98.73 0.100018 99.27 0.130018C99.9 1.88002 99.31 2.42002 97.64 2.40002C92.37 2.33002 87.1 2.43002 81.83 2.34002C80.05 2.31002 79.46 2.91002 80.1 4.82002C80.74 4.85002 81.45 4.91002 82.17 4.91002C86.9 4.92002 91.63 4.91002 96.36 4.93002C99.08 4.95002 99.96 5.90002 99.92 8.67002C99.89 11.26 98.99 12.17 96.34 12.17C90.66 12.19 84.99 12.17 79.31 12.17C78.78 12.17 78.25 12.1 77.61 12.06Z" fill="#161616"/>
<path d="M124.83 12.17C121.8 12.17 118.85 12.17 115.89 12.17C112.72 12.17 109.55 12.19 106.38 12.16C103.96 12.14 103.07 11.25 103.03 8.86999C103 6.90999 103.01 4.95999 103.03 2.99999C103.05 1.24999 103.93 0.0799935 105.69 0.0599935C112.02 -0.0100065 118.35 0.0299935 124.82 0.0299935V2.73999H105.93V9.38999H124.83V12.18V12.17Z" fill="#161616"/>
<path d="M146.83 4.73999V0.179993H149.43V12.02C148.69 12.05 147.92 12.09 146.96 12.13C146.88 10.63 146.8 9.24999 146.72 7.62999H135.33C135.13 7.62999 134.93 7.62999 134.72 7.62999C132.253 7.62999 130.917 8.85999 130.71 11.32C130.69 11.51 130.6 11.69 130.5 11.99C130.14 12.03 129.75 12.1 129.37 12.11C129.04 12.11 128.72 12.06 128.22 12.01V0.179993H130.71V4.73999H146.84H146.83Z" fill="#161616"/>
<path d="M72.35 8.00001C74.59 6.78001 74.21 4.53001 73.99 2.39001C73.84 0.930015 72.86 0.0400146 71.39 0.0400146C64.78 1.46478e-05 58.16 0.0200146 51.32 0.0200146V12.02H53.79C53.89 10.97 53.98 10.06 54.08 8.96001C58.44 8.96001 62.68 9.05001 66.92 8.92001C69.37 8.85001 71.22 9.31001 71.55 11.99H74.41C73.63 10.48 73.01 9.29001 72.33 7.99001L72.35 8.00001ZM68.55 6.23001C63.77 6.23001 58.99 6.23001 54.07 6.23001V2.94001H71.23C71.4167 5.13335 70.52 6.23001 68.54 6.23001H68.55Z" fill="#161616"/>
<path d="M48.06 3.20001C48 0.940006 47.08 0.0500056 44.8 0.0200056C42.17 -0.0199944 39.54 0.0200056 36.91 0.0200056C34.15 0.0200056 31.38 0.0100056 28.62 0.0400056C26.75 0.0600056 25.73 1.07001 25.68 2.93001C25.62 5.02001 25.62 7.11001 25.68 9.20001C25.74 11.2 26.69 12.15 28.73 12.17C34.19 12.22 39.65 12.2 45.12 12.17C46.99 12.17 48 11.14 48.05 9.28001C48.11 7.26001 48.11 5.23001 48.06 3.21001V3.20001ZM45.23 9.29001H28.5V2.96001H45.23V9.29001Z" fill="#161616"/>
<path d="M21.07 0.349996C20.75 0.139996 20.31 0.0399963 19.92 0.0399963C13.32 0.0199963 6.73 0.0299963 0 0.0299963V12.18C0.89 12.14 1.6 12.11 2.37 12.08C2.47 11.02 2.56 10.11 2.66 9.1C3.28 9.05 3.81 8.98 4.33 8.98C9.32 8.98 14.3 8.96 19.29 8.98C20.98 8.98 22.39 8.43 22.47 6.63C22.56 4.47 23.54 1.98 21.07 0.359996V0.349996ZM19.69 6.03H2.59V2.92H19.69V6.03Z" fill="#161616"/>
</g>
<defs>
<clipPath id="clip0_59_277">
<rect width="176.12" height="12.18" fill="white"/>
</clipPath>
</defs>
</svg>
